<?xml version="1.0" encoding="utf-8"?>
<!-- Generator: Adobe Illustrator 22.1.0, SVG Export Plug-In . SVG Version: 6.00 Build 0)  -->
<svg version="1.1" id="Capa_1" xmlns="http://www.w3.org/2000/svg" xmlns:xlink="http://www.w3.org/1999/xlink" x="0px" y="0px"
	 viewBox="0 0 71.9 97.7" style="enable-background:new 0 0 71.9 97.7;" xml:space="preserve">
<style type="text/css">
	.st0{fill:#07215E;}
</style>
<g>
	<path class="st0" d="M17,28.7c-0.8,0-1.6,0-2.4,0.1c0,0-0.2,0-0.2,0c0,0-0.1,0-0.1,0c-0.2,0-0.3,0-0.5,0.1c-0.3,0-0.7,0.1-1,0.2
		c-0.6,0.1-1.3,0.3-1.9,0.5c-0.2,0-0.3,0.1-0.5,0.2c0,0-0.1,0-0.2,0.1C10,29.8,9.8,29.9,9.6,30c-0.3,0.1-0.6,0.3-0.8,0.4
		c-0.1,0.1-0.2,0.1-0.4,0.2c-0.1,0.1-0.1,0.1-0.2,0.2c0,0,0,0,0,0c-0.1,0-0.1,0.1-0.2,0.1C8,31,7.9,31,7.9,31c0,0-0.1,0.1-0.1,0.1
		c-0.1,0.1-0.1,0.2-0.2,0.2c-0.1,0.2-0.2,0.4-0.3,0.6c0,0,0,0,0,0c0,0.1-0.1,0.2-0.1,0.3c-0.1,0.2-0.1,0.4-0.2,0.7
		c0,0.1,0,0.3-0.1,0.4c0,0,0,0.1,0,0.1c0,0.2,0,0.4,0,0.6c0,0.9,0.2,1.8,0.6,2.6c1,2.1,2.9,3.6,4.9,4.6c2.3,1,4.9,1.4,7.4,1.4
		c0.4,0,0.8,0,1.2,0c0.2,0,0.3,0,0.5,0c0.1,0,0.3,0,0.4,0c0.6-0.1,1.2-0.2,1.9-0.3c0.6-0.1,1.2-0.3,1.8-0.5c0.3-0.1,0.6-0.2,0.9-0.3
		c0,0,0,0,0.1,0c0.1-0.1,0.3-0.1,0.4-0.2c0.6-0.3,1.2-0.5,1.8-0.9c0,0,0.1,0,0.1-0.1c0.1-0.1,0.3-0.2,0.4-0.3
		c0.3-0.2,0.5-0.3,0.8-0.5c0.1-0.1,0.2-0.1,0.3-0.2c0,0,0,0,0,0c0.2-0.2,0.5-0.4,0.7-0.6c0.3-0.2,0.5-0.4,0.8-0.7
		c0.1-0.1,0.2-0.1,0.2-0.2c0.4-0.3,0.7-0.7,1.1-1c-2.5-2.5-5.1-5-8.4-6.5C22.4,29.3,19.7,28.8,17,28.7z"/>
	<path class="st0" d="M36,0C16.1,0,0,16.1,0,36c0,5.2,1.1,10.1,3.1,14.7c9,19.7,26.2,40.5,31.3,46.4c0.4,0.4,0.9,0.7,1.5,0.7
		s1.1-0.3,1.5-0.7c5.1-5.9,22.3-26.7,31.3-46.4c2.1-4.6,3.1-9.5,3.1-14.7C71.9,16.1,55.8,0,36,0z M68.6,36.8c-1.1,3-3.5,5.7-6.3,7.3
		c-2.9,1.7-6.2,2.5-9.6,2.6c-3.3,0.1-6.5-0.5-9.5-1.8c-2.4-1.1-4.5-2.7-6.4-4.6c-0.7-0.7-1.4-1.4-2.1-2.1c-0.1,0.1-0.1,0.1-0.2,0.2
		c-2.3,2.2-4.8,4.3-7.6,5.8c-2.8,1.5-6,2.3-9.2,2.5c-3.2,0.1-6.4-0.3-9.2-1.7c-2-1-3.8-2.5-4.7-4.5c-0.9-1.9-1.1-4-0.3-6
		c1.1-3,3.5-5.7,6.3-7.3c2.9-1.7,6.2-2.5,9.6-2.6c3.3-0.1,6.5,0.5,9.5,1.8c2.4,1.1,4.5,2.7,6.5,4.6c0.7,0.6,1.3,1.3,1.9,1.9
		c0.2-0.2,0.4-0.4,0.6-0.5c2.4-2.2,4.9-4.3,7.9-5.7c3.1-1.5,6.4-2.1,9.8-2.1c2.8,0,5.6,0.5,8.2,1.7c2,1,3.8,2.5,4.7,4.5
		C69.1,32.7,69.3,34.8,68.6,36.8z"/>
	<path class="st0" d="M59.4,30.1c-2.3-1-4.9-1.4-7.4-1.4c-0.4,0-0.8,0-1.2,0c-0.2,0-0.4,0-0.6,0c-0.1,0-0.3,0-0.4,0
		c-0.7,0.1-1.3,0.2-2,0.3c-0.7,0.1-1.3,0.3-1.9,0.5c-0.3,0.1-0.5,0.2-0.8,0.3c-0.1,0-0.1,0.1-0.2,0.1c-0.1,0.1-0.3,0.1-0.4,0.2
		c-0.6,0.2-1.1,0.5-1.6,0.8c0,0-0.1,0-0.1,0.1c-0.1,0-0.2,0.1-0.3,0.2c-0.3,0.2-0.5,0.3-0.7,0.5c-0.2,0.2-0.5,0.3-0.7,0.5
		c-0.1,0.1-0.2,0.1-0.3,0.2c-0.4,0.3-0.9,0.7-1.3,1.1c-0.1,0.1-0.2,0.2-0.3,0.3c-0.2,0.2-0.4,0.4-0.7,0.6c0,0,0,0-0.1,0.1
		c2.6,2.6,5.2,5.1,8.6,6.7c2.5,1.1,5.2,1.6,7.9,1.6c0.8,0,1.6,0,2.4-0.1c0,0,0.2,0,0.2,0c0,0,0.1,0,0.1,0c0.2,0,0.3,0,0.5-0.1
		c0.3,0,0.7-0.1,1-0.2c0.6-0.1,1.3-0.3,1.9-0.5c0.2-0.1,0.3-0.1,0.5-0.2c0,0,0.1,0,0.2-0.1c0.2-0.1,0.4-0.2,0.6-0.2
		c0.3-0.1,0.6-0.3,0.8-0.4c0.1-0.1,0.2-0.1,0.4-0.2c0.1-0.1,0.1-0.1,0.2-0.2c0,0,0,0,0,0c0.1,0,0.1-0.1,0.2-0.1c0,0,0.1-0.1,0.1-0.1
		c0,0,0.1-0.1,0.1-0.1c0.1-0.1,0.1-0.2,0.2-0.2c0.1-0.2,0.2-0.4,0.3-0.6c0,0,0,0,0,0c0-0.1,0.1-0.2,0.1-0.3c0.1-0.2,0.1-0.4,0.2-0.7
		c0-0.1,0-0.3,0.1-0.4c0,0,0-0.1,0-0.1c0-0.2,0-0.4,0-0.6c0-0.9-0.2-1.8-0.6-2.6C63.3,32.6,61.5,31.1,59.4,30.1z"/>
</g>
</svg>
