<?xml version="1.0" encoding="utf-8"?>
<!-- Generator: Adobe Illustrator 22.1.0, SVG Export Plug-In . SVG Version: 6.00 Build 0)  -->
<svg version="1.0" id="Layer_1" xmlns="http://www.w3.org/2000/svg" xmlns:xlink="http://www.w3.org/1999/xlink" x="0px" y="0px"
	 viewBox="0 0 785.645996 784" style="enable-background:new 0 0 785.645996 784;" xml:space="preserve">
<style type="text/css">
	.st0{fill:#FC982D;}
</style>
<path class="st0" d="M391.696289,785.354004c-52.964844,0-104.352051-10.376953-152.734863-30.84375
	c-46.727051-19.766602-88.691895-48.060547-124.728516-84.097656c-36.036621-36.036133-64.331055-78.000977-84.097168-124.727539
	c-20.466309-48.382812-30.84375-99.770508-30.84375-152.735352c0-52.964355,10.377441-104.34668,30.844238-152.719727
	c19.765625-46.716797,48.060059-88.669922,84.097656-124.694336c36.035645-36.022461,78.000488-64.305176,124.729004-84.062012
	c48.380371-20.455566,99.767578-30.827637,152.733398-30.827637s104.347656,10.37207,152.71875,30.827637
	c46.717773,19.756836,88.670898,48.039551,124.694336,84.062988s64.306641,77.976562,84.0625,124.694336
	C773.62793,288.602539,784,339.984375,784,392.949707c0,58.594727-12.588867,114.927734-37.416016,167.43457
	c-2.005859,4.24707-7.075195,6.064453-11.322266,4.052734c-4.246094-2.006836-6.060547-7.076172-4.052734-11.322266
	c23.744141-50.216797,35.783203-104.104492,35.783203-160.165039c0-50.677246-9.919922-99.830078-29.484375-146.09375
	c-18.899414-44.69043-45.958008-84.82666-80.424805-119.292969s-74.602539-61.525391-119.292969-80.424316
	c-46.263672-19.564941-95.416016-29.484863-146.09375-29.484863c-50.678223,0-99.836914,9.92041-146.110352,29.484863
	c-44.701172,18.899902-84.848633,45.958984-119.327637,80.425293c-34.480469,34.468262-61.550781,74.604004-80.458496,119.292969
	c-19.574707,46.265137-29.5,95.417969-29.5,146.092773c0,50.675781,9.925293,99.833984,29.5,146.108398
	c18.908691,44.700195,45.979004,84.848633,80.459473,119.328125c34.480469,34.480469,74.62793,61.551758,119.328125,80.459961
	c46.274902,19.575195,95.433105,29.5,146.108887,29.5c54.978516,0,107.953125-11.620117,157.452148-34.538086
	c47.842773-22.151367,89.816406-53.564453,124.756836-93.369141c3.097656-3.530273,8.469727-3.879883,12.000977-0.780273
	c3.529297,3.097656,3.878906,8.470703,0.780273,12.000977c-36.513672,41.59668-80.383789,74.428711-130.392578,97.582031
	C504.539062,773.20459,449.160156,785.354004,391.696289,785.354004z"/>
<g>
	<g>
		<path class="st0" d="M588.060608,265.412933c-3.275391-0.594452-6.453735,1.516357-7.09668,4.803864l-7.376282,38.353027
			c-22.669006,0.46756-34.528992,6.735107-46.012573,12.803741c-9.571411,5.058655-18.621185,9.850433-34.525055,11.112061
			c-2.656708,0.206207-5.495392,0.31543-8.552429,0.31543c-21.447723,0-31.941101-5.556061-43.065277-11.42749
			c-11.936981-6.308167-24.286438-12.834656-48.742645-12.834656c-24.432007,0-36.769318,6.526489-48.694122,12.846771
			c-5.337677,2.814423-10.37207,5.47113-16.49826,7.545532c-7.848816,2.632416-16.279907,3.869843-26.542816,3.869843
			c-21.447754,0-31.941132-5.556061-43.053192-11.42749c-11.458237-6.055206-23.292206-12.307892-45.841949-12.799927
			l-7.377029-38.356842c-0.630844-3.287506-3.845581-5.434723-7.09671-4.803864
			c-3.299637,0.642914-5.446854,3.821289-4.81601,7.108795l52.940002,275.266235
			c0.545898,2.850769,3.044891,4.913086,5.956345,4.913086h282.314362c2.911438,0,5.410461-2.062317,5.956299-4.925232
			l52.940002-275.254089C593.507446,269.222107,591.348083,266.055847,588.060608,265.412933z M528.970154,540.5578H256.676025
			L214.40889,320.79007c17.990555,0.829071,27.646744,5.934601,37.815048,11.307373
			c11.936951,6.308167,24.274261,12.834656,48.73053,12.834656c11.621582,0,21.277893-1.431458,30.412598-4.512756
			c7.060272-2.389832,12.773987-5.410431,18.29364-8.321899c11.112091-5.871429,21.605469-11.42749,43.028961-11.42749
			c21.447723,0,31.953247,5.556061,43.077423,11.42749c11.936981,6.308167,24.274292,12.834656,48.730499,12.834656
			c3.396729,0,6.550842-0.133423,9.535095-0.376038c18.390656-1.45575,28.98111-7.060303,39.219757-12.458618
			c10.196289-5.387573,19.888794-10.506134,37.986145-11.313751L528.970154,540.5578z"/>
		<path class="st0" d="M533.980042,566.005432H251.666107c-9.279297,0-17.279404-6.609253-19.023178-15.716003
			l-52.938232-275.255127c-2.008789-10.468872,4.871735-20.640686,15.336884-22.679886
			c5.080902-0.986679,10.24263,0.071671,14.537689,2.977127c4.293396,2.904205,7.194275,7.30011,8.168457,12.378082
			l5.433411,28.249146c18.996933,2.05835,30.555832,8.166351,40.936386,13.652283
			c10.467651,5.530914,18.709869,9.885559,36.836761,9.885559c8.755981,0,15.845642-1.01004,22.312408-3.178802
			c5.073822-1.718353,9.436798-4.018402,14.488129-6.681763c12.741425-6.753021,27.170776-14.401031,54.934937-14.401031
			c27.755371,0,42.208069,7.637604,54.958252,14.376038c10.485138,5.533813,18.730255,9.885559,36.84967,9.885559
			c2.636719,0,5.168427-0.092499,7.522614-0.275421c13.125183-1.04129,20.264435-4.81424,29.303741-9.591797
			c10.440979-5.518005,22.040283-11.646851,41.143921-13.68811l5.431702-28.237488
			c2.030029-10.386383,12.143555-17.266068,22.536987-15.381042l0.177551,0.033325
			c10.451782,2.043777,17.328552,12.210999,15.3302,22.664062L553.00116,550.288574
			C551.266968,559.387024,543.265198,566.005432,533.980042,566.005432z"/>
	</g>
</g>
</svg>
