<?xml version="1.0" encoding="utf-8"?>
<!-- Generator: Adobe Illustrator 22.1.0, SVG Export Plug-In . SVG Version: 6.00 Build 0)  -->
<svg version="1.0" id="Layer_1" xmlns="http://www.w3.org/2000/svg" xmlns:xlink="http://www.w3.org/1999/xlink" x="0px" y="0px"
	 viewBox="0 0 785.645996 784" style="enable-background:new 0 0 785.645996 784;" xml:space="preserve">
<style type="text/css">
	.st0{fill:#FC982D;}
</style>
<path class="st0" d="M391.696289,785.354004c-52.964844,0-104.352051-10.376953-152.734863-30.84375
	c-46.727051-19.766602-88.691895-48.060547-124.728516-84.097656c-36.036621-36.036133-64.331055-78.000977-84.097168-124.727539
	c-20.466309-48.382812-30.84375-99.770508-30.84375-152.735352c0-52.964355,10.377441-104.34668,30.844238-152.719727
	c19.765625-46.716797,48.060059-88.669922,84.097656-124.694336c36.035645-36.022461,78.000488-64.305176,124.729004-84.062012
	c48.380371-20.455566,99.767578-30.827637,152.733398-30.827637s104.347656,10.37207,152.71875,30.827637
	c46.717773,19.756836,88.670898,48.039551,124.694336,84.062988s64.306641,77.976562,84.0625,124.694336
	C773.62793,288.602539,784,339.984375,784,392.949707c0,58.594727-12.588867,114.927734-37.416016,167.43457
	c-2.005859,4.24707-7.075195,6.064453-11.322266,4.052734c-4.246094-2.006836-6.060547-7.076172-4.052734-11.322266
	c23.744141-50.216797,35.783203-104.104492,35.783203-160.165039c0-50.677246-9.919922-99.830078-29.484375-146.09375
	c-18.899414-44.69043-45.958008-84.82666-80.424805-119.292969s-74.602539-61.525391-119.292969-80.424316
	c-46.263672-19.564941-95.416016-29.484863-146.09375-29.484863c-50.678223,0-99.836914,9.92041-146.110352,29.484863
	c-44.701172,18.899902-84.848633,45.958984-119.327637,80.425293c-34.480469,34.468262-61.550781,74.604004-80.458496,119.292969
	c-19.574707,46.265137-29.5,95.417969-29.5,146.092773c0,50.675781,9.925293,99.833984,29.5,146.108398
	c18.908691,44.700195,45.979004,84.848633,80.459473,119.328125c34.480469,34.480469,74.62793,61.551758,119.328125,80.459961
	c46.274902,19.575195,95.433105,29.5,146.108887,29.5c54.978516,0,107.953125-11.620117,157.452148-34.538086
	c47.842773-22.151367,89.816406-53.564453,124.756836-93.369141c3.097656-3.530273,8.469727-3.879883,12.000977-0.780273
	c3.529297,3.097656,3.878906,8.470703,0.780273,12.000977c-36.513672,41.59668-80.383789,74.428711-130.392578,97.582031
	C504.539062,773.20459,449.160156,785.354004,391.696289,785.354004z"/>
<path class="st0" d="M587.339172,326.171967c-17.935913-8.719604-37.718933-12.021729-57.549072-12.066376
	c-23.964691,0.051361-47.413391,4.5849-69.109436,14.89093c-20.776764,9.870575-38.77359,24.363098-55.476715,39.96698
	c-1.326843,1.23996-2.634491,2.498566-3.947388,3.757294c-4.500427-4.551849-9.028625-9.070892-13.660614-13.461456
	c-13.57605-12.840118-28.465118-24.306915-45.529236-32.126343c-21.081573-9.671021-43.756897-13.503143-66.887329-12.973724
	c-24.039612,0.560272-47.038498,5.942047-67.843567,18.161072c-19.745605,11.588745-36.523636,30.150482-44.525955,51.665649
	c-5.194077,13.965424-3.848511,28.922119,2.30661,42.263977c6.591476,14.28418,19.257904,24.817688,33.181076,31.58255
	c20.195435,9.813995,42.781952,12.823853,65.035797,11.90506c22.750244-0.93512,44.989685-6.48587,65.06366-17.355011
	c19.979889-10.824005,37.30658-25.391907,53.545471-41.145477c0.412384-0.394104,0.806-0.792542,1.21405-1.198181
	c4.898834,4.974213,9.830811,9.920074,14.889008,14.708527c13.57135,12.84021,28.460358,24.302185,45.524445,32.126434
	c21.085907,9.669037,43.761719,13.49881,66.891663,12.971252c24.044403-0.560211,47.043304-5.939575,67.848358-18.163025
	c19.745667-11.591034,36.51886-30.150482,44.526001-51.670349c5.194092-13.955811,3.848938-28.915405-2.306641-42.250122
	C613.938354,343.468384,601.271423,332.939117,587.339172,326.171967z M191.284592,365.508636L191.284592,365.508636
	 M366.050171,407.547485c-0.534302,0.475708-1.068573,0.951447-1.598541,1.420349
	c-1.79538,1.582306-3.609467,3.119904-5.447052,4.645966c-1.701752,1.410828-3.431824,2.779907-5.180115,4.129791
	c-0.098938,0.070587-0.197327,0.147858-0.290955,0.222748c-0.735901,0.529968-1.453094,1.054657-2.184662,1.568298
	c-1.837616,1.274994-3.693939,2.517365-5.573792,3.72226c-0.947113,0.602448-1.903381,1.185699-2.86441,1.774231
	c-0.262604,0.166595-0.534302,0.316345-0.815613,0.482941c-4.040985,2.261871-8.222656,4.291595-12.48877,6.115265
	c-0.909241,0.389313-1.818909,0.757019-2.73291,1.120422c-0.150269,0.063354-0.300049,0.119446-0.459381,0.170898
	c-2.020538,0.743103-4.054962,1.422852-6.10379,2.051147c-4.242615,1.308197-8.555328,2.365234-12.896332,3.23941
	c-4.341064,0.869751-8.719543,1.49292-13.11673,1.952332c-0.360992,0.023529-2.222137,0.197296-2.634949,0.227539
	c-1.195312,0.079681-2.409363,0.150269-3.609467,0.206421c-2.737671,0.140656-5.475372,0.194427-8.213531,0.194427
	c-17.809143,0.037445-35.913971-2.63208-52.345383-9.713287c-14.691696-6.790619-27.850677-17.521027-34.830994-32.367798
	c-2.437653-5.810944-3.825455-11.989563-3.993958-18.306458c-0.033127-1.444061,0.009125-2.885559,0.112335-4.327118
	c0.018753-0.187225,0.037445-0.386444,0.07489-0.581329c0.112808-0.916412,0.272171-1.820892,0.440674-2.72818
	c0.295258-1.561005,0.68454-3.110657,1.13002-4.636169c0.192017-0.642303,0.403244-1.275482,0.623581-1.908173
	c0.027847-0.093597,0.070084-0.185303,0.102722-0.2789c0.553497-1.326843,1.195786-2.618164,1.856842-3.897949
	c0.36528-0.583832,0.749802-1.16748,1.134308-1.746399c0.192017-0.236664,0.374924-0.475739,0.576538-0.714783
	c0.220337-0.217957,0.440674-0.452209,0.661026-0.674957c0.384506-0.321136,0.764221-0.644775,1.153061-0.961029
	c0.060989-0.056183,0.135849-0.108032,0.201614-0.164185c0.525162-0.360992,1.035934-0.73111,1.561096-1.087769
	c0.825195-0.55542,1.669113-1.080597,2.522156-1.600952c1.940811-1.057068,3.919067-2.036835,5.934769-2.948425
	c1.312927-0.597656,2.648911-1.153564,3.984848-1.678314c0.496841-0.185211,1.059479-0.394043,1.36908-0.504059
	c1.124741-0.398438,2.263885-0.756927,3.403503-1.106415c4.415924-1.385406,8.930252-2.444855,13.482056-3.31662
	c2.428513-0.457001,4.884888-0.83432,7.332153-1.16745c1.162674-0.152191,2.315735-0.295227,3.478424-0.421967
	c0.328323-0.035034,0.651398-0.07489,0.984543-0.09848c0.205963-0.018646,1.185699-0.112274,1.46701-0.130981
	c5.555573-0.445496,11.138931-0.567413,16.712723-0.490143c19.023621,0.281311,37.934448,3.792847,55.420532,11.365997
	c23.303711,10.66272,41.497345,27.867493,59.198944,45.728455C371.094452,402.765686,368.591034,405.179901,366.050171,407.547485z
	 M596.865112,407.934387c-0.028259,0.187225-0.046997,0.382111-0.075317,0.576538
	c-0.121948,0.914001-0.271729,1.818878-0.440735,2.726166c-0.290405,1.561096-0.688843,3.110199-1.134338,4.633789
	c-0.187622,0.647156-0.398438,1.275055-0.618774,1.912567c-0.02832,0.093994-0.07489,0.18042-0.107971,0.276428
	c-0.5578,1.324524-1.190552,2.620636-1.861084,3.898499c-0.360596,0.585663-0.740295,1.166992-1.124817,1.734406
	c-0.192505,0.236664-0.384521,0.487244-0.581299,0.726776c-0.225159,0.220337-0.435913,0.449799-0.665833,0.667755
	c-0.374939,0.325928-0.75946,0.653809-1.143982,0.968231c-0.065247,0.051361-0.121887,0.098419-0.187195,0.154572
	c-0.529968,0.358612-1.04071,0.743103-1.584595,1.099304c-0.825195,0.546295-1.669128,1.075775-2.513,1.591339
	c-1.940369,1.059937-3.919128,2.039703-5.934814,2.956116c-1.312439,0.600067-2.648376,1.150665-3.989197,1.678223
	c-0.501648,0.185303-1.055115,0.393646-1.364258,0.501648c-1.134338,0.400848-2.269165,0.752228-3.398682,1.11084
	c-4.43512,1.382996-8.93988,2.440063-13.487305,3.312286c-2.432861,0.459412-4.880127,0.841522-7.331726,1.169403
	c-1.162659,0.154572-2.316223,0.292816-3.478333,0.421936c-0.32843,0.035065-0.661072,0.07251-0.994202,0.10321
	c-0.215515,0.013916-1.18573,0.10321-1.462708,0.126648c-5.559814,0.447479-11.138489,0.564636-16.712219,0.489655
	c-19.01886-0.281219-37.934967-3.789856-55.416229-11.368317c-23.85672-10.9133-42.350403-28.673462-60.436493-46.98233
	c0.131012-0.135834,0.271667-0.264496,0.403259-0.396027c1.537537-1.471802,3.084717-2.927795,4.641022-4.373688
	c0.703247-0.633179,1.401703-1.263458,2.114105-1.884644c2.920593-2.566803,5.920837-5.055817,8.977295-7.460846
	c0.623566-0.487701,1.256287-0.974945,1.884644-1.453064c1.575043-1.141571,3.16925-2.250458,4.767792-3.331024
	c1.729584-1.165161,3.483185-2.275909,5.259827-3.367981c0.590454-0.360992,1.185699-0.721985,1.785767-1.073883
	c0.216034-0.112396,0.421967-0.234253,0.628387-0.35379c3.769287-2.074249,7.655243-3.944977,11.597839-5.65155
	c0.918793-0.398438,1.837616-0.778137,2.766022-1.150665c0.281281-0.112305,0.740692-0.292816,1.190491-0.469055
	c1.8237-0.656158,3.661285-1.279724,5.513306-1.867798c4.519135-1.427643,9.108337-2.578308,13.740295-3.530212
	c4.683289-0.956268,9.427094-1.647522,14.180939-2.156372c0.459412-0.037445,2.249969-0.20163,2.644104-0.229462
	c1.481415-0.108093,2.958008-0.192505,4.443756-0.262573c2.817841-0.140656,5.635223-0.194916,8.457397-0.194916
	c17.832672,0.037933,35.871735,2.622955,52.340607,9.720886c14.687439,6.787811,27.846313,17.518707,34.82666,32.369812
	c2.42804,5.810913,3.824951,11.984772,3.984314,18.296844C597.010132,405.041656,596.95874,406.495209,596.865112,407.934387z"/>
</svg>
