<?xml version="1.0" encoding="utf-8"?>
<!-- Generator: Adobe Illustrator 22.1.0, SVG Export Plug-In . SVG Version: 6.00 Build 0)  -->
<svg version="1.0" id="Layer_1" xmlns="http://www.w3.org/2000/svg" xmlns:xlink="http://www.w3.org/1999/xlink" x="0px" y="0px"
	 viewBox="0 0 785.645996 784" style="enable-background:new 0 0 785.645996 784;" xml:space="preserve">
<style type="text/css">
	.st0{fill:#FFFFFF;}
	.st1{fill:#98BDFF;}
</style>
<path class="st0" d="M391.696289,785.354004c-52.964844,0-104.352051-10.376953-152.734863-30.84375
	c-46.727051-19.766602-88.691895-48.060547-124.728516-84.097656c-36.036621-36.036133-64.331055-78.000977-84.097168-124.727539
	c-20.466309-48.382812-30.84375-99.770508-30.84375-152.735352c0-52.964355,10.377441-104.34668,30.844238-152.719727
	c19.765625-46.716797,48.060059-88.669922,84.097656-124.694336c36.035645-36.022461,78.000488-64.305176,124.729004-84.062012
	c48.380371-20.455566,99.767578-30.827637,152.733398-30.827637s104.347656,10.37207,152.71875,30.827637
	c46.717773,19.756836,88.670898,48.039551,124.694336,84.062988s64.306641,77.976562,84.0625,124.694336
	C773.62793,288.602539,784,339.984375,784,392.949707c0,58.594727-12.588867,114.927734-37.416016,167.43457
	c-2.005859,4.24707-7.075195,6.064453-11.322266,4.052734c-4.246094-2.006836-6.060547-7.076172-4.052734-11.322266
	c23.744141-50.216797,35.783203-104.104492,35.783203-160.165039c0-50.677246-9.919922-99.830078-29.484375-146.09375
	c-18.899414-44.69043-45.958008-84.82666-80.424805-119.292969s-74.602539-61.525391-119.292969-80.424316
	c-46.263672-19.564941-95.416016-29.484863-146.09375-29.484863c-50.678223,0-99.836914,9.92041-146.110352,29.484863
	c-44.701172,18.899902-84.848633,45.958984-119.327637,80.425293c-34.480469,34.468262-61.550781,74.604004-80.458496,119.292969
	c-19.574707,46.265137-29.5,95.417969-29.5,146.092773c0,50.675781,9.925293,99.833984,29.5,146.108398
	c18.908691,44.700195,45.979004,84.848633,80.459473,119.328125c34.480469,34.480469,74.62793,61.551758,119.328125,80.459961
	c46.274902,19.575195,95.433105,29.5,146.108887,29.5c54.978516,0,107.953125-11.620117,157.452148-34.538086
	c47.842773-22.151367,89.816406-53.564453,124.756836-93.369141c3.097656-3.530273,8.469727-3.879883,12.000977-0.780273
	c3.529297,3.097656,3.878906,8.470703,0.780273,12.000977c-36.513672,41.59668-80.383789,74.428711-130.392578,97.582031
	C504.539062,773.20459,449.160156,785.354004,391.696289,785.354004z"/>
<g>
	<g id="Layer_1_64_">
		<g>
			<path class="st1" d="M385.141815,384.293671c0,4.248535,3.44339,7.67038,7.677582,7.67038s7.677582-3.44339,7.677582-7.67038
				c0.007202-8.985931,3.199005-17.720276,8.993134-24.592712c12.889435-15.283295,22.551117-31.853363,28.668732-49.250122
				c0.826691-2.350739,0.467285-4.953064-0.97049-6.987488c-1.444946-2.034424-3.774078-3.242126-6.268585-3.242126h-76.207947
				c-2.494507,0-4.830841,1.207703-6.275787,3.242126c-1.437744,2.034424-1.79718,4.636749-0.970459,6.987488
				c6.131989,17.396759,15.779297,33.966827,28.668732,49.250122
				C381.935638,366.573395,385.134613,375.314911,385.141815,384.293671z"/>
			<path class="st1" d="M400.496979,415.068695c0-4.241364-3.44339-7.67038-7.677582-7.67038s-7.677582,3.44339-7.677582,7.67038
				c-0.007202,11.085052-6.628052,22.047913-18.640442,30.940399c-25.692596,18.9711-44.922516,39.581268-57.157776,61.248169
				c-1.344299,2.386658-1.322723,5.290894,0.064697,7.63446c1.365875,2.365051,3.896301,3.809998,6.628052,3.809998h153.580475
				c2.724548,0,5.247772-1.444946,6.628021-3.809998c1.373077-2.343567,1.394623-5.247803,0.057526-7.63446
				c-12.228088-21.666901-31.465179-42.277069-57.150604-61.248169C407.125,437.116608,400.504181,426.153778,400.496979,415.068695
				z"/>
			<path class="st1" d="M527.191528,530.225342H522.5979C517.32135,470.46521,482.326538,424.586609,455.124298,392
				c27.209412-32.579407,62.189911-78.46521,67.488007-138.225311h4.593628c8.482727,0,15.355164-6.879639,15.355164-15.362366
				c0-8.482712-6.872437-15.355164-15.355164-15.355164H258.440063c-8.482712,0-15.355164,6.879639-15.355164,15.355179
				c0,8.482727,6.872452,15.36235,15.355164,15.36235h4.593628C268.317413,313.541962,303.297882,359.427765,330.507294,392
				c-27.202209,32.579407-62.18988,78.458038-67.480804,138.225342h-4.586426c-8.482712,0-15.355164,6.865234-15.355164,15.347961
				c0,8.489868,6.872452,15.369507,15.355164,15.369507h19.201172h230.356323h19.208374
				c8.482727,0,15.355164-6.879639,15.355164-15.369507C542.561096,537.090576,535.681458,530.225342,527.191528,530.225342z
				 M293.815918,530.225342c5.772552-53.994751,40.875244-95.574463,67.106995-126.644257l1.401794-1.660614
				c4.830841-5.715057,4.830841-14.082764,0-19.804993l-1.394623-1.653412
				c-26.224548-31.076965-61.341614-72.656708-67.114166-126.658615h198.006958
				c-5.772583,54.001907-40.889618,95.58165-67.114197,126.658615l-1.387421,1.653412
				c-4.830841,5.715057-4.830841,14.082764,0,19.804993l1.401794,1.660614
				c26.224579,31.069794,61.32724,72.649536,67.099792,126.644257
				C491.822845,530.225342,293.815918,530.225342,293.815918,530.225342z"/>
		</g>
	</g>
</g>
</svg>
