<?xml version="1.0" encoding="utf-8"?>
<!-- Generator: Adobe Illustrator 22.1.0, SVG Export Plug-In . SVG Version: 6.00 Build 0)  -->
<svg version="1.0" id="Layer_1" xmlns="http://www.w3.org/2000/svg" xmlns:xlink="http://www.w3.org/1999/xlink" x="0px" y="0px"
	 viewBox="0 0 785.645996 784" style="enable-background:new 0 0 785.645996 784;" xml:space="preserve">
<style type="text/css">
	.st0{fill:#FFFFFF;}
	.st1{fill:#98BDFF;}
</style>
<path class="st0" d="M391.696289,785.354004c-52.964844,0-104.352051-10.376953-152.734863-30.84375
	c-46.727051-19.766602-88.691895-48.060547-124.728516-84.097656c-36.036621-36.036133-64.331055-78.000977-84.097168-124.727539
	c-20.466309-48.382812-30.84375-99.770508-30.84375-152.735352c0-52.964355,10.377441-104.34668,30.844238-152.719727
	c19.765625-46.716797,48.060059-88.669922,84.097656-124.694336c36.035645-36.022461,78.000488-64.305176,124.729004-84.062012
	c48.380371-20.455566,99.767578-30.827637,152.733398-30.827637s104.347656,10.37207,152.71875,30.827637
	c46.717773,19.756836,88.670898,48.039551,124.694336,84.062988s64.306641,77.976562,84.0625,124.694336
	C773.62793,288.602539,784,339.984375,784,392.949707c0,58.594727-12.588867,114.927734-37.416016,167.43457
	c-2.005859,4.24707-7.075195,6.064453-11.322266,4.052734c-4.246094-2.006836-6.060547-7.076172-4.052734-11.322266
	c23.744141-50.216797,35.783203-104.104492,35.783203-160.165039c0-50.677246-9.919922-99.830078-29.484375-146.09375
	c-18.899414-44.69043-45.958008-84.82666-80.424805-119.292969s-74.602539-61.525391-119.292969-80.424316
	c-46.263672-19.564941-95.416016-29.484863-146.09375-29.484863c-50.678223,0-99.836914,9.92041-146.110352,29.484863
	c-44.701172,18.899902-84.848633,45.958984-119.327637,80.425293c-34.480469,34.468262-61.550781,74.604004-80.458496,119.292969
	c-19.574707,46.265137-29.5,95.417969-29.5,146.092773c0,50.675781,9.925293,99.833984,29.5,146.108398
	c18.908691,44.700195,45.979004,84.848633,80.459473,119.328125c34.480469,34.480469,74.62793,61.551758,119.328125,80.459961
	c46.274902,19.575195,95.433105,29.5,146.108887,29.5c54.978516,0,107.953125-11.620117,157.452148-34.538086
	c47.842773-22.151367,89.816406-53.564453,124.756836-93.369141c3.097656-3.530273,8.469727-3.879883,12.000977-0.780273
	c3.529297,3.097656,3.878906,8.470703,0.780273,12.000977c-36.513672,41.59668-80.383789,74.428711-130.392578,97.582031
	C504.539062,773.20459,449.160156,785.354004,391.696289,785.354004z"/>
<g>
	<g>
		<path class="st1" d="M308.704468,420.528992c11.286011,0,22.195007-0.729004,32.518005-2.085999V305.294006
			c-10.322021-1.355988-21.231995-2.084991-32.518005-2.084991c-64.44101,0-116.681,23.692993-116.681,52.92099v11.47702
			C192.023483,396.834015,244.263474,420.528992,308.704468,420.528992z"/>
		<path class="st1" d="M308.704468,479.611023c11.286011,0,22.195007-0.729004,32.518005-2.084015v-33.166016
			c-10.325012,1.356018-21.229004,2.095001-32.518005,2.095001c-56.25,0-103.199005-18.053986-114.22699-42.082001
			c-1.606003,3.5-2.45401,7.123993-2.45401,10.83902v11.47699C192.023483,455.917999,244.263474,479.611023,308.704468,479.611023z"
			/>
		<path class="st1" d="M341.221497,506.02301v-2.578003c-10.325012,1.355988-21.229004,2.095001-32.518005,2.095001
			c-56.250015,0-103.199005-18.053986-114.22702-42.082001c-1.605988,3.498993-2.453995,7.123016-2.453995,10.838013v11.47699
			c0,29.229004,52.240005,52.921997,116.681015,52.921997c12.886963,0,25.281982-0.950012,36.872986-2.700012
			c-2.872986-5.877014-4.35498-12.075012-4.35498-18.496033V506.02301z"/>
		<path class="st1" d="M476.942505,213.57901c-64.44104,0-116.68103,23.692993-116.68103,52.92099v11.47702
			c0,29.227997,52.240021,52.92099,116.68103,52.92099c64.440002,0,116.680969-23.692993,116.680969-52.921021V266.5
			C593.623474,237.272003,541.382446,213.57901,476.942505,213.57901z"/>
		<path class="st1" d="M476.942505,356.826019c-56.25,0-103.199036-18.053009-114.22699-42.082001
			c-1.606018,3.498993-2.45401,7.122986-2.45401,10.838989v11.47702c0,29.227997,52.240021,52.92099,116.681,52.92099
			c64.440002,0,116.68103-23.692993,116.68103-52.92099v-11.47702c0-3.716003-0.848022-7.339996-2.454041-10.838989
			C580.141479,338.77301,533.192505,356.826019,476.942505,356.826019z"/>
		<path class="st1" d="M476.942505,415.910004c-56.25,0-103.199036-18.053986-114.22699-42.082001
			c-1.606018,3.498993-2.45401,7.123016-2.45401,10.83902v11.47699c0,29.229004,52.240021,52.922028,116.681,52.922028
			c64.440002,0,116.68103-23.692993,116.68103-52.921997v-11.47702c0-3.716003-0.848022-7.339996-2.454041-10.838989
			C580.141479,397.856995,533.192505,415.910004,476.942505,415.910004z"/>
		<path class="st1" d="M476.942505,478.183014c-56.25,0-103.199036-18.053986-114.22699-42.082001
			c-1.606018,3.5-2.45401,7.122986-2.45401,10.837982v11.478027c0,29.227997,52.240021,52.92099,116.681,52.92099
			c64.440002,0,116.68103-23.692993,116.68103-52.92099v-11.477997c0-3.714996-0.848022-7.339996-2.454041-10.838013
			C580.141479,460.128021,533.192505,478.183014,476.942505,478.183014z"/>
		<path class="st1" d="M476.942505,537.265991c-56.25,0-103.199036-18.052979-114.22699-42.080963
			c-1.606018,3.5-2.45401,7.125-2.45401,10.838013V517.5c0,29.227966,52.240021,52.920959,116.681,52.920959
			c64.440002,0,116.68103-23.692993,116.68103-52.920959v-11.477997c0-3.714996-0.848022-7.339996-2.454041-10.838013
			C580.141479,519.211975,533.192505,537.265991,476.942505,537.265991z"/>
	</g>
</g>
</svg>
