<?xml version="1.0" encoding="utf-8"?>
<!-- Generator: Adobe Illustrator 22.1.0, SVG Export Plug-In . SVG Version: 6.00 Build 0)  -->
<svg version="1.0" id="Layer_1" xmlns="http://www.w3.org/2000/svg" xmlns:xlink="http://www.w3.org/1999/xlink" x="0px" y="0px"
	 viewBox="0 0 785.645996 784" style="enable-background:new 0 0 785.645996 784;" xml:space="preserve">
<style type="text/css">
	.st0{fill:#FC972F;}
</style>
<path class="st0" d="M391.696289,785.354004c-52.964844,0-104.352051-10.376953-152.734863-30.84375
	c-46.727051-19.766602-88.691895-48.060547-124.728516-84.097656c-36.036621-36.036133-64.331055-78.000977-84.097168-124.727539
	c-20.466309-48.382812-30.84375-99.770508-30.84375-152.735352c0-52.964355,10.377441-104.34668,30.844238-152.719727
	c19.765625-46.716797,48.060059-88.669922,84.097656-124.694336c36.035645-36.022461,78.000488-64.305176,124.729004-84.062012
	c48.380371-20.455566,99.767578-30.827637,152.733398-30.827637s104.347656,10.37207,152.71875,30.827637
	c46.717773,19.756836,88.670898,48.039551,124.694336,84.062988s64.306641,77.976562,84.0625,124.694336
	C773.62793,288.602539,784,339.984375,784,392.949707c0,58.594727-12.588867,114.927734-37.416016,167.43457
	c-2.005859,4.24707-7.075195,6.064453-11.322266,4.052734c-4.246094-2.006836-6.060547-7.076172-4.052734-11.322266
	c23.744141-50.216797,35.783203-104.104492,35.783203-160.165039c0-50.677246-9.919922-99.830078-29.484375-146.09375
	c-18.899414-44.69043-45.958008-84.82666-80.424805-119.292969s-74.602539-61.525391-119.292969-80.424316
	c-46.263672-19.564941-95.416016-29.484863-146.09375-29.484863c-50.678223,0-99.836914,9.92041-146.110352,29.484863
	c-44.701172,18.899902-84.848633,45.958984-119.327637,80.425293c-34.480469,34.468262-61.550781,74.604004-80.458496,119.292969
	c-19.574707,46.265137-29.5,95.417969-29.5,146.092773c0,50.675781,9.925293,99.833984,29.5,146.108398
	c18.908691,44.700195,45.979004,84.848633,80.459473,119.328125c34.480469,34.480469,74.62793,61.551758,119.328125,80.459961
	c46.274902,19.575195,95.433105,29.5,146.108887,29.5c54.978516,0,107.953125-11.620117,157.452148-34.538086
	c47.842773-22.151367,89.816406-53.564453,124.756836-93.369141c3.097656-3.530273,8.469727-3.879883,12.000977-0.780273
	c3.529297,3.097656,3.878906,8.470703,0.780273,12.000977c-36.513672,41.59668-80.383789,74.428711-130.392578,97.582031
	C504.539062,773.20459,449.160156,785.354004,391.696289,785.354004z"/>
<g>
	<g>
		<circle class="st0" cx="333.697754" cy="354.209137" r="18.599121"/>
		<circle class="st0" cx="451.857025" cy="429.699768" r="18.599121"/>
		<path class="st0" d="M605.20874,416.570953l-6.746704-9.208405c-7.293762-10.028931-7.476135-23.613617-0.273499-33.824921
			l6.564392-9.299561c10.028931-14.22287,5.37915-34.007263-10.028931-42.303925l-10.028931-5.37915
			c-10.940674-5.835022-16.958069-18.052124-14.861084-30.360382l1.914612-11.214203
			c2.917542-17.140381-9.937744-33.004333-27.351685-33.733719l-11.396545-0.455872
			c-12.399414-0.547028-23.157715-8.934875-26.622284-20.878448l-3.19104-10.940659
			c-4.832123-16.775696-23.248932-25.437073-39.295258-18.50798l-10.484802,4.467453
			c-11.396515,4.923294-24.707672,2.005783-33.004364-7.293793l-7.567291-8.479019
			c-11.578857-12.946457-31.910278-12.855286-43.39801,0.3647l-7.476105,8.57019
			c-8.205505,9.390732-21.425476,12.490601-32.913177,7.749634l-10.575989-4.376266
			c-16.137482-6.655579-34.371948,2.370483-39.021729,19.146179l-3.008698,11.031845
			c-3.282196,12.034729-13.858185,20.604919-26.257614,21.243134l-11.39653,0.638199
			c-17.413895,1.002899-29.995667,17.04921-26.804642,34.18959l2.096954,11.214203
			c2.279312,12.217072-3.55571,24.52533-14.405212,30.542694l-9.937775,5.561523
			c-15.225769,8.479034-19.602036,28.354584-9.299576,42.395111l6.74675,9.208405
			c7.293793,10.028931,7.476135,23.613617,0.273514,33.82489l-6.564392,9.299591
			c-10.028946,14.22287-5.379166,34.007233,10.028946,42.303925l10.028946,5.37915
			c10.940674,5.835022,16.958038,18.052094,14.861084,30.360352l-1.914627,11.214172
			c-2.917511,17.140381,9.937775,33.004395,27.351685,33.733765l11.39653,0.455811
			c12.399414,0.547058,23.157745,8.934875,26.622284,20.878479l3.19104,10.940674
			c4.832123,16.775696,23.248932,25.437012,39.295227,18.507935l10.484833-4.467407
			c11.396515-4.92334,24.707672-2.005798,33.004333,7.293762l7.567322,8.479004
			c11.670044,12.946472,32.001465,12.855286,43.39798-0.364685l7.476135-8.57019
			c8.205505-9.390747,21.425476-12.490601,32.913208-7.749634l10.575989,4.376282
			c16.137482,6.655518,34.371948-2.370483,39.021698-19.146179l3.008698-11.03186
			c3.282166-12.034729,13.858154-20.604919,26.257568-21.243103l11.396545-0.638245
			c17.41394-1.00293,29.995667-17.049255,26.804626-34.189606l-2.096924-11.214172
			c-2.279297-12.217072,3.555725-24.52533,14.405212-30.542694l9.937744-5.561523
			C611.134949,450.578186,615.51123,430.702667,605.20874,416.570953z M288.749847,354.209137
			c0-24.798859,20.057892-44.85675,44.85675-44.85675s44.85675,20.057892,44.85675,44.85675
			c0,24.798828-20.057892,44.85675-44.85675,44.85675S288.749847,378.916809,288.749847,354.209137z M342.267975,469.906738
			c-3.829254,4.64978-10.758331,5.287964-15.408112,1.45874l0,0c-4.64978-3.829224-5.287994-10.758301-1.458771-15.408081
			l117.7034-141.772888c3.829254-4.64978,10.758331-5.287994,15.408112-1.45874
			c4.649811,3.829224,5.287994,10.758331,1.458771,15.408112L342.267975,469.906738z M451.857025,474.556488
			c-24.798859,0-44.856781-20.057892-44.856781-44.85675c0-24.798889,20.057922-44.85675,44.856781-44.85675
			s44.85675,20.057861,44.85675,44.85675C496.713776,454.498596,476.655884,474.556488,451.857025,474.556488z"/>
	</g>
</g>
</svg>
