<?xml version="1.0" encoding="utf-8"?>
<!-- Generator: Adobe Illustrator 22.1.0, SVG Export Plug-In . SVG Version: 6.00 Build 0)  -->
<svg version="1.0" id="Layer_1" xmlns="http://www.w3.org/2000/svg" xmlns:xlink="http://www.w3.org/1999/xlink" x="0px" y="0px"
	 viewBox="0 0 785.645996 784" style="enable-background:new 0 0 785.645996 784;" xml:space="preserve">
<style type="text/css">
	.st0{fill:#FFFFFF;}
	.st1{fill:#98BDFF;}
</style>
<path class="st0" d="M391.696289,785.354004c-52.964844,0-104.352051-10.376953-152.734863-30.84375
	c-46.727051-19.766602-88.691895-48.060547-124.728516-84.097656c-36.036621-36.036133-64.331055-78.000977-84.097168-124.727539
	c-20.466309-48.382812-30.84375-99.770508-30.84375-152.735352c0-52.964355,10.377441-104.34668,30.844238-152.719727
	c19.765625-46.716797,48.060059-88.669922,84.097656-124.694336c36.035645-36.022461,78.000488-64.305176,124.729004-84.062012
	c48.380371-20.455566,99.767578-30.827637,152.733398-30.827637s104.347656,10.37207,152.71875,30.827637
	c46.717773,19.756836,88.670898,48.039551,124.694336,84.062988s64.306641,77.976562,84.0625,124.694336
	C773.62793,288.602539,784,339.984375,784,392.949707c0,58.594727-12.588867,114.927734-37.416016,167.43457
	c-2.005859,4.24707-7.075195,6.064453-11.322266,4.052734c-4.246094-2.006836-6.060547-7.076172-4.052734-11.322266
	c23.744141-50.216797,35.783203-104.104492,35.783203-160.165039c0-50.677246-9.919922-99.830078-29.484375-146.09375
	c-18.899414-44.69043-45.958008-84.82666-80.424805-119.292969s-74.602539-61.525391-119.292969-80.424316
	c-46.263672-19.564941-95.416016-29.484863-146.09375-29.484863c-50.678223,0-99.836914,9.92041-146.110352,29.484863
	c-44.701172,18.899902-84.848633,45.958984-119.327637,80.425293c-34.480469,34.468262-61.550781,74.604004-80.458496,119.292969
	c-19.574707,46.265137-29.5,95.417969-29.5,146.092773c0,50.675781,9.925293,99.833984,29.5,146.108398
	c18.908691,44.700195,45.979004,84.848633,80.459473,119.328125c34.480469,34.480469,74.62793,61.551758,119.328125,80.459961
	c46.274902,19.575195,95.433105,29.5,146.108887,29.5c54.978516,0,107.953125-11.620117,157.452148-34.538086
	c47.842773-22.151367,89.816406-53.564453,124.756836-93.369141c3.097656-3.530273,8.469727-3.879883,12.000977-0.780273
	c3.529297,3.097656,3.878906,8.470703,0.780273,12.000977c-36.513672,41.59668-80.383789,74.428711-130.392578,97.582031
	C504.539062,773.20459,449.160156,785.354004,391.696289,785.354004z"/>
<g>
	<polygon class="st1" points="392.822998,177.776016 427.114258,247.257675 503.79184,258.399597 448.307404,312.483521 
		461.405518,388.851288 392.822998,352.795319 324.240479,388.851288 337.338593,312.483521 281.854156,258.399597 
		358.531738,247.257675 	"/>
	<g>
		<polygon class="st1" points="535.031189,367.148712 569.322449,436.630402 646,447.772308 590.515564,501.856232 
			603.613647,578.223999 535.031189,542.16803 466.448669,578.223999 479.546753,501.856232 424.062347,447.772308 
			500.739899,436.630402 		"/>
		<polygon class="st1" points="250.614822,367.148712 284.906097,436.630402 361.583649,447.772308 306.099243,501.856232 
			319.197327,578.223999 250.614822,542.16803 182.032318,578.223999 195.130417,501.856232 139.645996,447.772308 
			216.323578,436.630402 		"/>
	</g>
</g>
</svg>
