<?xml version="1.0" encoding="utf-8"?>
<!-- Generator: Adobe Illustrator 22.1.0, SVG Export Plug-In . SVG Version: 6.00 Build 0)  -->
<svg version="1.1" id="Layer_1" xmlns="http://www.w3.org/2000/svg" xmlns:xlink="http://www.w3.org/1999/xlink" x="0px" y="0px"
	 viewBox="0 0 50.3 50" style="enable-background:new 0 0 50.3 50;" xml:space="preserve">
<style type="text/css">
	.st0{fill:#F89731;}
</style>
<path class="st0" d="M25.2,0c-13.8,0-25,11.2-25,25s11.2,25,25,25s25-11.2,25-25S39.1,0,25.2,0z M31.7,16.2c0,0.3-0.3,0.6-0.6,0.6
	h-2.5c-1.7,0-2,0.7-2,2v2.8H31c0.2,0,0.3,0.1,0.4,0.2s0.2,0.3,0.2,0.4v4.7c0,0.3-0.3,0.6-0.6,0.6h-4.4v11.9c0,0.3-0.3,0.6-0.6,0.6
	h-4.9c-0.3,0-0.6-0.3-0.6-0.6v-12h-3.7c-0.3,0-0.6-0.3-0.6-0.6v-4.7c0-0.3,0.3-0.6,0.6-0.6h3.7v-3.3c0-4.3,2.7-7.1,6.9-7.1h3.7
	c0.3,0,0.6,0.3,0.6,0.6V16.2z"/>
</svg>
