<?xml version="1.0" encoding="utf-8"?>
<!-- Generator: Adobe Illustrator 22.1.0, SVG Export Plug-In . SVG Version: 6.00 Build 0)  -->
<svg version="1.1" id="Layer_1" xmlns="http://www.w3.org/2000/svg" xmlns:xlink="http://www.w3.org/1999/xlink" x="0px" y="0px"
	 viewBox="0 0 50.3 50" style="enable-background:new 0 0 50.3 50;" xml:space="preserve">
<style type="text/css">
	.st0{fill:#99B6DF;}
	.st1{fill:#FFFFFF;}
</style>
<g>
	<path class="st0" d="M25.2,50c-13.8,0-25-11.2-25-25s11.2-25,25-25s25,11.2,25,25S38.9,50,25.2,50z M25.2,1.6
		C12.3,1.6,1.8,12.1,1.8,25s10.3,23.4,23.3,23.4S48.5,37.9,48.5,25S38,1.6,25.2,1.6z"/>
</g>
<g>
	<g>
		<path class="st1" d="M31.1,10.1h-3.7c-4.2,0-6.9,2.8-6.9,7.1v3.3h-3.7c-0.3,0-0.6,0.3-0.6,0.6v4.7c0,0.3,0.3,0.6,0.6,0.6h3.7v11.9
			c0,0.3,0.3,0.6,0.6,0.6H26c0.3,0,0.6-0.3,0.6-0.6V26.4H31c0.3,0,0.6-0.3,0.6-0.6v-4.7c0-0.2-0.1-0.3-0.2-0.4s-0.3-0.2-0.4-0.2
			h-4.4v-2.8c0-1.3,0.3-2,2-2h2.5c0.3,0,0.6-0.3,0.6-0.6v-4.4C31.7,10.4,31.5,10.1,31.1,10.1z"/>
	</g>
</g>
</svg>
