<?xml version="1.0" encoding="utf-8"?>
<!-- Generator: Adobe Illustrator 22.1.0, SVG Export Plug-In . SVG Version: 6.00 Build 0)  -->
<svg version="1.0" id="Layer_1" xmlns="http://www.w3.org/2000/svg" xmlns:xlink="http://www.w3.org/1999/xlink" x="0px" y="0px"
	 viewBox="0 0 46.283684 46.202045" style="enable-background:new 0 0 46.283684 46.202045;" xml:space="preserve">
<style type="text/css">
	.st0{fill:#FFFFFF;}
</style>
<g>
	<g>
		<g>
			<path class="st0" d="M23.141842,38.349323c-8.4075,0-15.248301-6.840801-15.248301-15.248301
				s6.8408-15.248301,15.248301-15.248301s15.248299,6.8408,15.248299,15.248301S31.549341,38.349323,23.141842,38.349323z
				 M23.141842,10.733122c-6.8197,0-12.3679,5.548201-12.3679,12.367901s5.5482,12.367998,12.3679,12.367998
				s12.368-5.5483,12.368-12.367998S29.961542,10.733122,23.141842,10.733122z"/>
		</g>
	</g>
	<g>
		<g>
			<path class="st0" d="M24.711451,15.853822c2.798691,0,4.742392,1.3079,4.742392,4.1615c0,2.817101-1.998501,4.125-4.597601,4.125
				h-2.9084v4.652401h-2.815701V15.853822H24.711451z M21.947842,21.905622h2.5273c1.2714,0,2.216499-0.4191,2.216499-1.853701
				c0-1.3811-0.945099-1.871901-2.1996-1.871901h-2.544199V21.905622z"/>
		</g>
	</g>
</g>
</svg>
