<?xml version="1.0" encoding="utf-8"?>
<!-- Generator: Adobe Illustrator 22.1.0, SVG Export Plug-In . SVG Version: 6.00 Build 0)  -->
<svg version="1.0" id="Layer_1" xmlns="http://www.w3.org/2000/svg" xmlns:xlink="http://www.w3.org/1999/xlink" x="0px" y="0px"
	 viewBox="0 0 46.283684 46.202045" style="enable-background:new 0 0 46.283684 46.202045;" xml:space="preserve">
<style type="text/css">
	.st0{fill:#FFFFFF;}
</style>
<g>
	<g>
		<g>
			<g>
				<g>
					<g>
						<path class="st0" d="M23.141792,39.002781H8.890692c-0.6568,0-1.230595-0.444401-1.3952-1.080799l-7.4497-28.9235
							c-0.1983-0.77,0.2658-1.5555,1.0365-1.7538c0.7651-0.1962,1.5569,0.2644,1.753805,1.0351l7.171295,27.842701h13.1344
							c0.796099,0,1.440199,0.644897,1.440199,1.440201C24.581991,38.357983,23.937891,39.002781,23.141792,39.002781z"/>
					</g>
				</g>
				<g>
					<g>
						<path class="st0" d="M37.39299,39.002781H23.141792c-0.796001,0-1.440102-0.644798-1.440102-1.440098
							c0-0.795303,0.6441-1.440201,1.440102-1.440201h13.134499L43.44759,8.279781c0.198299-0.7707,0.998508-1.232,1.753799-1.0351
							c0.770706,0.1983,1.234802,0.983799,1.036503,1.7538l-7.449795,28.9235
							C38.623592,38.55838,38.049789,39.002781,37.39299,39.002781z"/>
					</g>
				</g>
			</g>
			<g>
				<g>
					<path class="st0" d="M12.319491,18.213282c-2.1068,0-4.213599-0.6849-5.7438-2.052601
						c-0.9001-0.805899-2.2165-1.2806-3.6355-1.324199c-0.7946-0.0246-1.419095-0.6891-1.3952-1.483701
						c0.0267-0.7954,0.6948-1.4507,1.4852-1.3952c2.1166,0.0654,4.049,0.787601,5.4414,2.0323
						c1.9563,1.7516,5.7508,1.7531,7.684599,0.0211c3.0744-2.7552,8.451101-2.7545,11.514301-0.0092
						c1.9394,1.7362,5.7339,1.7362,7.6677,0.0042c1.672199-1.5006,4.188297-2.2502,6.725498-1.9942
						c0.791801,0.0787,1.369801,0.784,1.291,1.5751c-0.078701,0.7918-0.796001,1.379-1.5751,1.2911
						c-1.7257-0.168799-3.454201,0.316501-4.518799,1.2728c-3.067402,2.7474-8.444101,2.746-11.505901,0
						c-1.9394-1.7355-5.733898-1.7362-7.6677-0.0035C16.548592,17.524881,14.433291,18.213282,12.319491,18.213282z"/>
				</g>
			</g>
		</g>
		<g>
			<g>
				<path class="st0" d="M22.155891,30.609381h-1.4781v2.5301h-2.073v-2.5301h-4.7143v-2.0576l4.7761-6.442699h2.0112v6.6467h1.4781
					V30.609381z M18.604792,24.670082l-2.9226,4.085699h2.9226V24.670082z"/>
			</g>
			<g>
				<path class="st0" d="M31.221592,27.719181c0,3.4879-1.509001,5.608799-4.006802,5.608799
					c-2.545599,0-4.068798-2.089899-4.068798-5.608799c0-2.593399,0.926899-5.6411,4.053299-5.6411
					C30.358097,22.078081,31.221592,25.125782,31.221592,27.719181z M25.345692,27.828882c0,2.497799,0.5963,3.6919,1.8536,3.6919
					c1.225,0,1.822701-1.240501,1.822701-3.801601c0-2.6243-0.565401-3.8029-1.8382-3.8029
					C25.345692,23.916281,25.345692,26.525181,25.345692,27.828882z"/>
			</g>
		</g>
	</g>
	<g>
		<g>
			<path class="st0" d="M34.07449,20.913681c0.521,0,0.8633,0.4643,0.8633,1.035101c0,0.5707-0.424099,1.035099-0.945099,1.035099
				c-0.521099,0-0.945099-0.464399-0.945099-1.035099c0-0.570801,0.424-1.035101,0.945099-1.035101H34.07449z M33.992691,19.473482
				c-1.317501,0-2.3853,1.1082-2.3853,2.4753c0,1.367001,1.067799,2.4753,2.3853,2.4753
				c1.317101,0,2.385201-1.108299,2.385201-2.4753C36.377892,20.581682,35.309792,19.473482,33.992691,19.473482
				L33.992691,19.473482z"/>
		</g>
	</g>
</g>
</svg>
