<?xml version="1.0" encoding="utf-8"?>
<!-- Generator: Adobe Illustrator 22.1.0, SVG Export Plug-In . SVG Version: 6.00 Build 0)  -->
<svg version="1.0" id="Layer_1" xmlns="http://www.w3.org/2000/svg" xmlns:xlink="http://www.w3.org/1999/xlink" x="0px" y="0px"
	 viewBox="0 0 44.666992 26.666992" style="enable-background:new 0 0 44.666992 26.666992;" xml:space="preserve">
<style type="text/css">
	.st0{fill:#FFFFFF;}
</style>
<path class="st0" d="M41.166992,26.666992H3.5c-1.929688,0-3.5-1.570312-3.5-3.5V3.5C0,1.570312,1.570312,0,3.5,0h37.666992
	c1.929688,0,3.5,1.570312,3.5,3.5v19.666992C44.666992,25.09668,43.09668,26.666992,41.166992,26.666992z M3.5,1
	C2.121094,1,1,2.121094,1,3.5v19.666992c0,1.378906,1.121094,2.5,2.5,2.5h37.666992c1.378906,0,2.5-1.121094,2.5-2.5V3.5
	c0-1.378906-1.121094-2.5-2.5-2.5H3.5z"/>
<g>
	<g>
		<g>
			<polygon class="st0" points="18.829702,8.096244 16.9856,18.644512 19.8624,18.644512 21.632738,8.096244 			"/>
		</g>
	</g>
	<g>
		<g>
			<path class="st0" d="M14.625147,8.096244l-2.803036,7.15512l-0.295056-1.106462
				c-0.590113-1.327753-2.139159-3.171856-3.983262-4.352082l2.581744,8.777928h3.024328l4.499612-10.474504H14.625147z"/>
		</g>
	</g>
	<g>
		<g>
			<path class="st0" d="M10.420593,8.833885c-0.147529-0.663877-0.663877-0.811406-1.25399-0.88517H4.740757L4.666992,8.243773
				c3.466913,0.811406,5.753601,2.876801,6.712535,5.311017L10.420593,8.833885z"/>
		</g>
	</g>
	<g>
		<g>
			<path class="st0" d="M27.460102,10.087875c0.958935,0,1.62281,0.221292,2.13916,0.36882l0.295057,0.14753l0.36882-2.286688
				c-0.590113-0.221292-1.475283-0.442585-2.581743-0.442585c-2.803036,0-4.868433,1.401518-4.868433,3.466913
				c0,1.475283,1.401518,2.360453,2.50798,2.876801c1.106461,0.516349,1.475283,0.811405,1.475283,1.327753
				c0,0.737642-0.88517,1.032698-1.696575,1.032698c-1.180225,0-1.770338-0.14753-2.729273-0.51635l-0.36882-0.147529
				l-0.36882,2.286689c0.663876,0.295057,1.917868,0.51635,3.171856,0.590113c3.024328,0,4.942196-1.401518,5.015959-3.614441
				c0-1.180226-0.73764-2.139159-2.434216-2.876801c-1.032696-0.516349-1.62281-0.811405-1.62281-1.327753
				C25.837294,10.604225,26.353642,10.087875,27.460102,10.087875z"/>
		</g>
	</g>
	<g>
		<g>
			<path class="st0" d="M37.639549,8.096244h-2.212921c-0.663879,0-1.180225,0.221292-1.475285,0.88517l-4.278316,9.663098h3.024326
				c0,0,0.51635-1.327753,0.590115-1.549046c0.295055,0,3.245621,0,3.688206,0c0.073761,0.36882,0.36882,1.549046,0.36882,1.549046
				H40L37.639549,8.096244z M34.098873,14.882543c0.221294-0.590113,1.106461-2.950564,1.106461-2.950564
				s0.221294-0.590113,0.368824-1.032698l0.221291,0.88517c0,0,0.51635,2.507979,0.663879,3.024329h-2.360455V14.882543z"/>
		</g>
	</g>
</g>
</svg>
