<?xml version="1.0" encoding="utf-8"?>
<!-- Generator: Adobe Illustrator 22.1.0, SVG Export Plug-In . SVG Version: 6.00 Build 0)  -->
<svg version="1.0" id="Layer_1" xmlns="http://www.w3.org/2000/svg" xmlns:xlink="http://www.w3.org/1999/xlink" x="0px" y="0px"
	 viewBox="0 0 44.666992 26.666992" style="enable-background:new 0 0 44.666992 26.666992;" xml:space="preserve">
<style type="text/css">
	.st0{fill:#FFFFFF;}
</style>
<path class="st0" d="M41.166992,26.666992H3.5c-1.929688,0-3.5-1.570312-3.5-3.5V3.5C0,1.570312,1.570312,0,3.5,0h37.666992
	c1.929688,0,3.5,1.570312,3.5,3.5v19.666992C44.666992,25.09668,43.09668,26.666992,41.166992,26.666992z M3.5,1
	C2.121094,1,1,2.121094,1,3.5v19.666992c0,1.378906,1.121094,2.5,2.5,2.5h37.666992c1.378906,0,2.5-1.121094,2.5-2.5V3.5
	c0-1.378906-1.121094-2.5-2.5-2.5H3.5z"/>
<g>
	<g>
		<g>
			<path class="st0" d="M11.738436,10.393815c-0.152998-0.229496-0.305995-0.458993-0.61199-0.611989
				c-0.229496-0.152998-0.53549-0.305994-0.917983-0.305994C9.82597,9.399333,9.443477,9.399333,8.984485,9.399333H6.766024
				c-0.229496,0-0.458992,0.152998-0.535491,0.382493L4.853559,16.20771c-0.076499,0.229496,0.076499,0.382494,0.305995,0.382494
				h1.070981c0.229496,0,0.458992-0.152998,0.535491-0.382494l0.382493-1.529972
				c0.076499-0.229495,0.305995-0.382493,0.53549-0.382493h0.229496c1.300477,0,2.294959-0.229495,2.983447-0.764986
				c0.688487-0.535491,1.070981-1.223979,1.070981-2.065464C11.967932,10.929304,11.891433,10.62331,11.738436,10.393815z
				 M9.519975,12.459277c-0.305994,0.229495-0.764986,0.382493-1.300477,0.382493H7.913504
				c-0.229496,0-0.382493-0.152998-0.305995-0.382493l0.305995-1.376975c0.076499-0.229495,0.305995-0.382493,0.53549-0.382493
				h0.305995c0.382493,0,0.688488,0.076499,0.917984,0.229495c0.229496,0.152998,0.305994,0.382493,0.305994,0.611988
				C9.978967,11.923787,9.82597,12.229781,9.519975,12.459277z"/>
		</g>
	</g>
	<g>
		<g>
			<path class="st0" d="M16.863844,11.311797c-0.382494-0.229495-0.994483-0.305994-1.912466-0.305994
				c-0.458992,0-0.841485,0-1.300477,0.076499c-0.305994,0.076499-0.382493,0.076499-0.53549,0.076499
				c-0.382493,0.076499-0.458992,0.458992-0.458992,0.458992l-0.076498,0.611988
				c-0.076499,0.305995,0.152997,0.305995,0.229496,0.305995c0.152997-0.076499,0.305994-0.076499,0.611989-0.152998
				c0.305994-0.076499,0.688487-0.152998,0.994482-0.152998c0.382494,0,0.764987,0.076499,0.917984,0.152998
				c0.229496,0.076499,0.305994,0.229495,0.305994,0.458992v0.152998h-0.152998c-0.611989,0-0.994482,0.076499-1.529972,0.152998
				c-0.535491,0.076498-0.994483,0.229495-1.300477,0.382493c-0.382493,0.152998-0.688487,0.382493-0.917983,0.688487
				s-0.305995,0.688487-0.305995,1.070981c0,0.382493,0.152997,0.764985,0.458992,0.994481s0.688488,0.382494,1.070981,0.382494
				c0.305994,0,0.53549,0,0.688487-0.0765l0.535491-0.152998l0.458992-0.229494l0.382493-0.229496l0,0l-0.076499,0.152998l0,0l0,0
				c-0.076499,0.229496,0.076499,0.382492,0.305994,0.382492l0,0l0,0h0.841486h0.152996l0,0
				c0.229496,0,0.382494-0.229494,0.458992-0.382492l0.764986-3.289442l0.0765-0.305994V12.30628
				C17.399334,11.923787,17.246338,11.541294,16.863844,11.311797z M15.104375,15.060231l-0.152997,0.229496l-0.382493,0.229495
				c-0.229496,0.076499-0.382493,0.152998-0.535491,0.152998c-0.229496,0-0.458992,0-0.611989-0.076499l-0.229496-0.382493
				c0-0.229496,0.076499-0.382494,0.152997-0.535491l0.458992-0.305995c0.152998-0.076499,0.458993-0.152997,0.688488-0.152997
				c0.229496,0,0.688487-0.076499,0.764986-0.076499l0.076499,0.152997
				C15.333871,14.218746,15.180874,14.754236,15.104375,15.060231z"/>
		</g>
	</g>
	<g>
		<g>
			<path class="st0" d="M35.912003,11.311797c-0.382492-0.229495-0.994484-0.305994-1.912468-0.305994
				c-0.458988,0-0.84148,0-1.300476,0.076499c-0.305996,0.076499-0.382492,0.076499-0.535492,0.076499
				c-0.382492,0.076499-0.45899,0.458992-0.45899,0.458992l-0.076496,0.611988
				c-0.076498,0.305995,0.152998,0.305995,0.229494,0.305995c0.153-0.076499,0.305996-0.076499,0.611988-0.152998
				c0.305996-0.076499,0.688492-0.152998,0.994484-0.152998c0.382492,0,0.764984,0.076499,0.917984,0.152998
				c0.229496,0.076499,0.305996,0.229495,0.305996,0.458992v0.152998h-0.153c-0.611988,0-1.07098,0.076499-1.529972,0.152998
				c-0.535492,0.076498-0.99448,0.229495-1.300478,0.382493c-0.382492,0.152998-0.688488,0.382493-0.917984,0.688487
				c-0.229494,0.305994-0.305996,0.688487-0.305996,1.070981c0,0.382493,0.152998,0.764985,0.458992,0.994481
				c0.305996,0.229496,0.688488,0.382494,1.070982,0.382494c0.305996,0,0.535492,0,0.688488-0.0765l0.535492-0.152998
				l0.458992-0.229494l0.382492-0.229496l0,0v0.152998l0,0l0,0c-0.0765,0.229496,0.076496,0.382492,0.305996,0.382492l0,0l0,0
				c0.152996,0,0.611988,0,0.841484,0h0.152996l0,0c0.229496,0,0.382492-0.229494,0.458992-0.382492l0.764984-3.289442
				l0.0765-0.305994V12.30628C36.523994,11.923787,36.294495,11.541294,35.912003,11.311797z M34.229034,15.060231
				l-0.152996,0.229496l-0.382496,0.229495c-0.229496,0.076499-0.382492,0.152998-0.535488,0.152998
				c-0.229496,0-0.458992,0-0.611992-0.076499l-0.229492-0.382493c0-0.229496,0.076496-0.382494,0.152996-0.535491
				c0.076496-0.152998,0.229496-0.229496,0.458992-0.305995c0.152996-0.076499,0.382492-0.152997,0.688488-0.152997
				c0.229496,0,0.688488-0.076499,0.764984-0.076499l0.0765,0.152997C34.38203,14.218746,34.305531,14.754236,34.229034,15.060231z"
				/>
		</g>
	</g>
	<g>
		<g>
			<path class="st0" d="M30.863094,10.393815c-0.152998-0.229496-0.305996-0.458993-0.61199-0.611989
				c-0.229494-0.152998-0.53549-0.305994-0.917984-0.305994c-0.382492-0.076499-0.764986-0.076499-1.223978-0.076499h-2.21846
				c-0.229496,0-0.458992,0.152998-0.53549,0.382493l-1.453474,6.425884c-0.0765,0.229496,0.076498,0.382494,0.305994,0.382494
				h1.07098c0.229496,0,0.458992-0.152998,0.535492-0.382494l0.382492-1.529972
				c0.0765-0.229495,0.305994-0.382493,0.535492-0.382493h0.305994c1.300476,0,2.294958-0.229495,2.983448-0.764986
				c0.688488-0.535491,1.070982-1.223979,1.070982-2.065464C31.016092,11.005803,30.93959,10.699809,30.863094,10.393815z
				 M28.568134,12.535776c-0.305994,0.229495-0.764986,0.382493-1.300478,0.382493h-0.229494
				c-0.229496,0-0.382494-0.152998-0.305994-0.382493l0.305994-1.376975c0.076498-0.229495,0.305994-0.382493,0.53549-0.382493
				h0.305994c0.382494,0,0.688488,0.076499,0.917986,0.229495c0.229494,0.152998,0.305994,0.382493,0.305994,0.611988
				C29.027126,11.923787,28.874128,12.30628,28.568134,12.535776z"/>
		</g>
	</g>
	<g>
		<g>
			<path class="st0" d="M39.813435,9.858324c0.076496-0.229496-0.076496-0.382494-0.305996-0.382494h-0.917984
				c-0.229496,0-0.382492,0.152998-0.458992,0.305995l-0.076496,0.076499l-0.076496,0.229495l-1.30048,5.966893l-0.076496,0.152998
				l0,0c-0.076496,0.229496,0.076496,0.382494,0.229496,0.382494l0,0h0.99448c0.153,0,0.382492-0.152998,0.458992-0.305994
				l0.076496-0.0765L39.813435,9.858324L39.813435,9.858324z"/>
		</g>
	</g>
	<g>
		<g>
			<path class="st0" d="M23.978216,11.082302c-0.229494,0-1.223978,0-1.223978,0c-0.229496,0-0.53549,0.152998-0.688488,0.382493
				c0,0-1.529972,2.600953-1.68297,2.83045h-0.152998l-0.45899-2.83045c-0.0765-0.229495-0.305994-0.382493-0.535492-0.382493
				h-0.917984c-0.229494,0-0.382492,0.152998-0.305994,0.382493c0,0,0.688488,4.054427,0.841486,5.048909
				c0.076498,0.535492,0,0.61199,0,0.61199l-0.994482,1.60647c-0.152998,0.229496-0.076498,0.382494,0.152998,0.382494h1.07098
				c0.229496,0,0.535492-0.152998,0.688488-0.382494l4.207424-7.114371C23.901718,11.69429,24.36071,11.082302,23.978216,11.082302z
				"/>
		</g>
	</g>
</g>
</svg>
