<?xml version="1.0" encoding="utf-8"?>
<!-- Generator: Adobe Illustrator 22.1.0, SVG Export Plug-In . SVG Version: 6.00 Build 0)  -->
<svg version="1.0" id="Layer_1" xmlns="http://www.w3.org/2000/svg" xmlns:xlink="http://www.w3.org/1999/xlink" x="0px" y="0px"
	 viewBox="0 0 44.666992 26.666992" style="enable-background:new 0 0 44.666992 26.666992;" xml:space="preserve">
<style type="text/css">
	.st0{fill:#FFFFFF;}
</style>
<path class="st0" d="M41.166992,26.666992H3.5c-1.929688,0-3.5-1.570312-3.5-3.5V3.5C0,1.570312,1.570312,0,3.5,0h37.666992
	c1.929688,0,3.5,1.570312,3.5,3.5v19.666992C44.666992,25.09668,43.09668,26.666992,41.166992,26.666992z M3.5,1
	C2.121094,1,1,2.121094,1,3.5v19.666992c0,1.378906,1.121094,2.5,2.5,2.5h37.666992c1.378906,0,2.5-1.121094,2.5-2.5V3.5
	c0-1.378906-1.121094-2.5-2.5-2.5H3.5z"/>
<g id="sIxMVZ_1_">
	<g>
		<path class="st0" d="M22.342815,23.120934c-1.992868,0.024538-3.963087-0.183142-5.907763-0.625919
			c-0.16572-0.037731-0.271427-0.111919-0.359947-0.261299c-1.729698-2.918869-2.857078-6.057074-3.421062-9.398596
			c-0.109272-0.647419-0.173841-1.302716-0.244384-1.95596c-0.00994-0.092045,0.039497-0.214517,0.102667-0.286969
			c2.181218-2.501747,4.730715-4.541673,7.676958-6.075363c0.655035-0.340983,1.332699-0.639009,2.005173-0.945333
			c0.084589-0.038531,0.215073-0.039205,0.301052-0.002692c3.041418,1.291607,5.76045,3.073112,8.121639,5.388597
			c0.527996,0.517777,1.024855,1.067732,1.525116,1.612905c0.072113,0.078588,0.12392,0.217139,0.115433,0.322319
			c-0.223576,2.770325-0.859329,5.441094-1.949739,8.001071c-0.494419,1.160757-1.05724,2.28627-1.697544,3.373642
			c-0.073423,0.124685-0.162275,0.185932-0.298252,0.215853c-1.588303,0.349514-3.191669,0.5849-4.818916,0.635963
			C23.110128,23.131176,22.726311,23.120934,22.342815,23.120934z M22.64361,22.429861
			c0.344206-0.017731,0.973856-0.045294,1.602852-0.083599c1.218607-0.074209,2.421791-0.26218,3.61392-0.519453
			c0.102034-0.022017,0.219566-0.115334,0.270462-0.208128c0.348967-0.636259,0.70179-1.271708,1.01684-1.925034
			c1.300343-2.696562,2.068022-5.544506,2.37249-8.519032c0.010798-0.105494-0.036572-0.247411-0.107954-0.325806
			c-0.401255-0.440681-0.807571-0.877831-1.231552-1.296551c-2.233526-2.205811-4.802744-3.918959-7.669649-5.188697
			c-0.096531-0.042752-0.245996-0.040407-0.342438,0.003372c-0.548441,0.24896-1.096724,0.500826-1.629587,0.781122
			c-2.758362,1.450951-5.171857,3.346653-7.251245,5.666884c-0.067786,0.075638-0.120633,0.208965-0.107697,0.305669
			c0.107936,0.806872,0.205716,1.616643,0.357719,2.415808c0.545922,2.870198,1.560427,5.568526,3.035415,8.09139
			c0.04759,0.081404,0.151777,0.160385,0.243048,0.181063C18.639814,22.222002,20.48905,22.411915,22.64361,22.429861z"/>
		<path class="st0" d="M30.124723,11.428795c-0.507233,0.220534-1.01449,0.44101-1.521692,0.661613
			c-2.027058,0.881645-4.053589,1.76452-6.082893,2.640966c-0.088039,0.038025-0.217546,0.054174-0.300863,0.018226
			c-2.507328-1.081768-5.011286-2.171349-7.515586-3.260137c-0.043152-0.018761-0.084001-0.042818-0.124382-0.095468
			c5.178037,1.080706,10.353696,1.08363,15.528392-0.029008C30.113373,11.386257,30.119049,11.407526,30.124723,11.428795z"/>
		<path class="st0" d="M27.845381,21.640017c-1.116077-0.758911-2.232109-1.517893-3.348253-2.276705
			c-0.663197-0.450876-1.329247-0.89765-1.987492-1.355644c-0.123129-0.08567-0.204453-0.083544-0.325325-0.000872
			c-1.708582,1.168592-3.420465,2.332357-5.131859,3.496836c-0.07069,0.0481-0.144421,0.091726-0.234497,0.113222
			c1.83802-2.256849,3.676041-4.513697,5.529072-6.788975c1.853029,2.274946,3.691235,4.531691,5.529438,6.788437
			C27.866104,21.624216,27.855743,21.632116,27.845381,21.640017z"/>
		<path class="st0" d="M18.987358,8.203263c0.020311,0.154388,0.162094,0.292142-0.073687,0.358346
			c-0.01684,0.004727-0.030235,0.075267-0.021357,0.108905c0.041508,0.157283,0.091393,0.312355,0.139011,0.470636
			c0.179255-0.000795,0.25082-0.08432,0.238838-0.244194c-0.008181-0.109145-0.028622-0.217997-0.02853-0.326966
			c0.000093-0.114084-0.016768-0.249969,0.037338-0.336651c0.066067-0.105841,0.188745-0.201961,0.306522-0.237627
			c0.048923-0.014815,0.148491,0.137613,0.246574,0.235487c-0.242821,0.102139-0.217625,0.272039-0.211792,0.448871
			c0.005564,0.168742-0.025915,0.338705-0.043688,0.53686c0.208645,0.033261,0.310471,0.253433,0.408712,0.472463
			c0.067272,0.149977,0.152756,0.26164,0.401581,0.217016c-0.046129,0.153234-0.048397,0.305769-0.125805,0.382419
			c-0.104492,0.103466-0.380468,0.018317-0.469336-0.126575c-0.107132-0.174678-0.198845-0.359491-0.287724-0.544485
			c-0.07943-0.16533-0.185322-0.208149-0.360466-0.092895c0.057457,0.2032,0.116259,0.411144,0.178936,0.632801
			c0.203352-0.042123,0.288874,0.055025,0.292643,0.269679c-0.238989,0.070259-0.482882,0.157153-0.734243,0.203886
			c-0.054609,0.010152-0.135986-0.123675-0.224728-0.210444c0.112993-0.059855,0.166117-0.087995,0.24066-0.127481
			c-0.060085-0.208354-0.121595-0.421651-0.184454-0.639624c-0.188583,0.005455-0.282579,0.066591-0.250698,0.263603
			c0.027285,0.168595,0.036615,0.340444,0.046867,0.511272c0.004021,0.067019,0.014143,0.15781-0.022329,0.198435
			c-0.095734,0.106627-0.203993,0.230721-0.330814,0.268243c-0.06069,0.017956-0.174757-0.144498-0.288671-0.246822
			c0.230848-0.106226,0.245686-0.255177,0.218742-0.443741c-0.030443-0.21305-0.069016-0.442154,0.097744-0.579116
			c-0.117964-0.149291-0.242552-0.270907-0.321976-0.417067c-0.089331-0.16439-0.167046-0.315851-0.441153-0.293569
			c0.046207-0.136789,0.051283-0.280499,0.124319-0.338226c0.11294-0.089267,0.377136,0.007889,0.469906,0.152383
			c0.092096,0.143451,0.163418,0.300331,0.242489,0.45203c0.072783,0.139641,0.172895,0.187337,0.342163,0.087108
			c-0.052744-0.182195-0.106741-0.368706-0.162306-0.56065c-0.076571,0.010316-0.135561,0.018263-0.219414,0.02956
			c-0.023205-0.089184-0.046305-0.177968-0.073257-0.28156c0.077425-0.025173,0.140377-0.047275,0.20429-0.066121
			C18.550415,8.329844,18.75292,8.271454,18.987358,8.203263z"/>
		<path class="st0" d="M23.221916,10.506376c0-0.063103-0.000792-0.116446,0.00013-0.169759
			c0.005936-0.342754,0.006054-0.342269-0.346209-0.344456c-0.178032-0.001105-0.356319,0.000874-0.533983-0.008352
			c-0.125681-0.006529-0.173586,0.041309-0.165352,0.166133c0.007563,0.114606,0.001606,0.230105,0.001606,0.357425
			c-0.154688,0-0.287285,0-0.434319,0c0-0.272615,0-0.536839,0-0.738439c0.099928-0.121414,0.18862-0.191955,0.228273-0.283692
			c0.188425-0.435922,0.225311-0.900538,0.208334-1.367709c-0.002483-0.068338-0.11676-0.132615-0.17931-0.19877
			c-0.017008,0.01143-0.034016,0.02286-0.051023,0.034289c0-0.085372,0-0.170746,0-0.268773c0.577215,0,1.148581,0,1.735146,0
			c0,0.103055,0,0.187865,0,0.289019c-0.06916,0.008973-0.141354,0.018338-0.234642,0.030442c0,0.542972,0,1.088917,0,1.64091
			c0.235586,0.091546,0.235586,0.091546,0.235598,0.39138c0.000006,0.149838,0.000004,0.299676,0.000004,0.470351
			C23.530539,10.506376,23.392439,10.506376,23.221916,10.506376z M22.352022,9.639674
			c0.18981,0,0.345963,0.007234,0.500612-0.004823c0.041332-0.003222,0.111362-0.064896,0.111895-0.100574
			c0.007414-0.496177,0.005022-0.992499,0.005022-1.537426c-0.137835,0.086743-0.356121-0.111557-0.371508,0.146751
			C22.56847,8.640073,22.564056,9.136416,22.352022,9.639674z"/>
		<path class="st0" d="M26.592224,9.639132c-0.253153-0.066948-0.443615-0.117317-0.631332-0.16696
			c-0.020882-0.312699,0.03167-0.359052,0.315418-0.288163c0.117661,0.029395,0.235573,0.057775,0.350248,0.085853
			c0.15839-0.409609,0.013229-0.729558-0.343536-0.805962c-0.129459-0.027724-0.216095-0.001951-0.23217,0.142776
			c-0.01692,0.152345-0.07058,0.206662-0.243031,0.16429c-0.184517-0.045337-0.160284-0.131177-0.124893-0.265784
			c0.100956-0.383976,0.198997-0.452434,0.587578-0.382553c0.676888,0.12173,0.951412,0.513692,0.837917,1.250989
			c-0.039999,0.259842-0.123516,0.521638-0.235033,0.760163c-0.308411,0.659665-1.225418,0.534678-1.599863,0.195593
			c-0.040497-0.036673-0.032799-0.134249-0.034084-0.203822c-0.000849-0.046001,0.022875-0.092279,0.034454-0.138718
			c0.082096-0.329221,0.092161-0.333906,0.421066-0.193129c0.003811,0.012682,0.00915,0.025229,0.010654,0.03822
			c0.014416,0.124375-0.17663,0.266009,0.031147,0.374067c0.187319,0.097418,0.46664,0.070962,0.587412-0.086675
			C26.428732,9.982849,26.495165,9.817173,26.592224,9.639132z"/>
		<path class="st0" d="M21.350281,9.882043c-0.004276,0.176115-0.152744,0.310869-0.340208,0.308784
			c-0.190401-0.002117-0.331604-0.141934-0.3237-0.320526c0.007708-0.174164,0.166571-0.312515,0.347803-0.302899
			C21.208374,9.576646,21.354174,9.721768,21.350281,9.882043z"/>
		<path class="st0" d="M24.791546,9.942575c-0.001774,0.171129-0.136703,0.294332-0.324032,0.295868
			c-0.183895,0.001508-0.334757-0.136227-0.339235-0.30972c-0.004427-0.171466,0.147816-0.310665,0.336834-0.307972
			C24.650835,9.623396,24.793396,9.763946,24.791546,9.942575z"/>
	</g>
</g>
</svg>
