<?xml version="1.0" encoding="utf-8"?>
<!-- Generator: Adobe Illustrator 22.1.0, SVG Export Plug-In . SVG Version: 6.00 Build 0)  -->
<svg version="1.0" id="Layer_1" xmlns="http://www.w3.org/2000/svg" xmlns:xlink="http://www.w3.org/1999/xlink" x="0px" y="0px"
	 viewBox="0 0 44.666992 26.666992" style="enable-background:new 0 0 44.666992 26.666992;" xml:space="preserve">
<style type="text/css">
	.st0{fill:#FFFFFF;}
</style>
<path class="st0" d="M41.166992,26.666992H3.5c-1.929688,0-3.5-1.570312-3.5-3.5V3.5C0,1.570312,1.570312,0,3.5,0h37.666992
	c1.929688,0,3.5,1.570312,3.5,3.5v19.666992C44.666992,25.09668,43.09668,26.666992,41.166992,26.666992z M3.5,1
	C2.121094,1,1,2.121094,1,3.5v19.666992c0,1.378906,1.121094,2.5,2.5,2.5h37.666992c1.378906,0,2.5-1.121094,2.5-2.5V3.5
	c0-1.378906-1.121094-2.5-2.5-2.5H3.5z"/>
<path class="st0" d="M25.001707,17.091873l-7.080652-5.25365l-1.728945,2.995202l8.092644,3.502573L25.001707,17.091873z
	 M26.090857,15.208111l-6.069817-7.00794l-1.716246,2.973992l7.079502,5.25734L26.090857,15.208111z M27.391205,12.954865
	l-5.057392-8.759737l-1.910116,3.308843l6.06941,7.006517L27.391205,12.954865z M13.689731,19.168257l-1.908017,3.303608h10.114611
	l0.897032-1.553989L13.689731,19.168257z M22.774183,22.471865h2.691299l2.36471-4.095556l2.364361,4.095556h2.690727
	l-5.055088-8.756979L22.774183,22.471865z M23.901621,18.997282l-8.092096-3.501677l-1.718121,2.975626l9.104204,1.750004
	L23.901621,18.997282z"/>
</svg>
