<?xml version="1.0" encoding="utf-8"?>
<!-- Generator: Adobe Illustrator 22.1.0, SVG Export Plug-In . SVG Version: 6.00 Build 0)  -->
<svg version="1.0" id="Layer_1" xmlns="http://www.w3.org/2000/svg" xmlns:xlink="http://www.w3.org/1999/xlink" x="0px" y="0px"
	 viewBox="0 0 44.666992 26.666992" style="enable-background:new 0 0 44.666992 26.666992;" xml:space="preserve">
<style type="text/css">
	.st0{fill:#FFFFFF;}
</style>
<path class="st0" d="M41.166992,26.666992H3.5c-1.929688,0-3.5-1.570312-3.5-3.5V3.5C0,1.570312,1.570312,0,3.5,0h37.666992
	c1.929688,0,3.5,1.570312,3.5,3.5v19.666992C44.666992,25.09668,43.09668,26.666992,41.166992,26.666992z M3.5,1
	C2.121094,1,1,2.121094,1,3.5v19.666992c0,1.378906,1.121094,2.5,2.5,2.5h37.666992c1.378906,0,2.5-1.121094,2.5-2.5V3.5
	c0-1.378906-1.121094-2.5-2.5-2.5H3.5z"/>
<g>
	<path class="st0" d="M15.816095,18.385469l0.267195-1.124908h-1.808393l1.156514,1.124908H15.816095z M16.243731,16.590588
		l0.267195-1.126445h-4.08153l1.156514,1.126445H16.243731z M16.670441,14.79416l0.268419-1.125218h-6.354657l1.156196,1.125218
		H16.670441z M17.098066,12.999277l0.268431-1.126445H8.738701l1.157731,1.126445H17.098066z M17.526011,11.202858
		l0.268421-1.125227H6.893498l1.157432,1.125227H17.526011z M17.953638,9.407967l0.268429-1.126445H5.047997l1.157422,1.126445
		H17.953638z"/>
	<path class="st0" d="M36.43169,18.385469l1.524021-1.455902l0.782558-3.260626v-0.008275l-1.229519-1.558986l-1.538429,0.002453
		l0.279152-1.173066l0.192963-0.150929h0.402473l0.152157,0.173623l-0.06105,0.249097h2.389404l0.293575-1.249766l-1.027973-1.67157
		H35.88044l-1.301304,1.126445h4.070477l0.401562,0.669664h-4.976665l-0.268425,1.125227h1.74826l-0.160442,0.669974h-1.747028
		l-0.268421,1.126445h4.214355l0.521191,0.669664h-4.746586l0.865383,1.125218h3.606956l-0.159519,0.669983h-1.730465
		l-0.110134,0.46015l-0.192955,0.150929h-0.402473l-0.152462-0.172405l0.082825-0.338063l0.026379-0.100611h-2.40995
		l-0.267193,1.126445h4.886787l-0.724892,0.669973h-4.204845l0.776424,1.124908H36.43169z M25.353142,18.385469l1.279827-5.386192
		h2.681755l-0.286217,0.669664h-2.303198l-0.043251,1.125218h1.866972l-0.286207,0.669983h-1.605921l-0.042952,1.126445h1.169392
		l-0.284981,0.669973h-0.909565l-0.043251,1.124908h1.107121l2.296141-5.386192h1.785385l-0.160442,0.669664H29.82641
		l-0.268421,1.125218h1.748566l-0.160746,0.669983h-1.747034l-0.268415,1.126445h1.74826l-0.160442,0.669973h-1.747339
		l-0.268419,1.124908h2.379889l2.137854-8.977503l0.268417-1.126445h-3.119196l-0.531008,1.126445h2.751377l-0.15921,0.669664
		h-2.908445l-0.530704,1.125227h3.170736l-0.159523,0.669974h-3.326569l-0.408611,0.866309v-4.45762h-2.7428l-0.268419,1.126445
		h2.379894v0.669664h-2.53941l-0.268419,1.125227h2.807829v0.668748l-2.967041,0.001226l-0.268425,1.126445h1.601015
		l-0.159515,0.669664h-1.601015l-0.268425,1.125218h1.602242l-0.158287,0.669983H23.81349l-0.267195,1.126445h1.603159
		l-0.15921,0.669973H23.38555l-0.267195,1.124908H25.353142z M22.068607,18.385469l0.267189-1.124908l0.159515-0.669973h0.00123
		l0.267195-1.126445h-2.172522l0.155836-0.669983h1.992752l0.088661-0.371184l0.376089-1.580761l0.231306-0.969382h-2.010546
		l0.155842-0.669974h2.197666l0.268421-1.125227h-0.001226l0.15921-0.669664h0.001232l0.268415-1.126445h-4.730951
		l-0.268419,1.126445h4.099621l-0.159515,0.669664h-4.099312l-0.268419,1.125227h1.901638l-0.15584,0.669974h-1.905323
		l-0.268412,1.126445h3.916174l-0.159525,0.669664h-3.915873l-0.268412,1.125218h1.924337l-0.155836,0.669983h-1.928026
		l-0.26841,1.126445h4.100538l-0.15921,0.669973h-4.100544l-0.268421,1.124908H22.068607z"/>
</g>
</svg>
