<?xml version="1.0" encoding="utf-8"?>
<!-- Generator: Adobe Illustrator 22.1.0, SVG Export Plug-In . SVG Version: 6.00 Build 0)  -->
<svg version="1.0" id="Layer_1" xmlns="http://www.w3.org/2000/svg" xmlns:xlink="http://www.w3.org/1999/xlink" x="0px" y="0px"
	 viewBox="0 0 46.283684 46.202045" style="enable-background:new 0 0 46.283684 46.202045;" xml:space="preserve">
<style type="text/css">
	.st0{fill:#FFFFFF;}
</style>
<g>
	<path class="st0" d="M42.380638,35.522572L26.94541,26.29199l15.435228-9.229479
		c0.922363-0.551325,1.224655-1.75183,0.672009-2.677943c-0.351799-0.584458-0.993431-0.947724-1.676849-0.947724
		c-0.350643,0-0.696156,0.095268-0.999825,0.276929l-17.23414,10.304175L5.906423,13.712506
		c-0.302346-0.180393-0.64786-0.275662-0.998502-0.275662c-0.684689,0-1.326318,0.363267-1.678227,0.950261
		c-0.551267,0.923576-0.248978,2.124082,0.673331,2.675406l15.435282,9.229479L3.903025,35.522572
		c-0.922308,0.55138-1.224599,1.751942-0.672063,2.676727c0.350642,0.585674,0.99354,0.948994,1.675692,0.948994
		c0.350642,0,0.696156-0.095322,1.001037-0.276985l17.234142-10.304115L40.37851,38.872578
		c0.302399,0.180393,0.647915,0.275715,0.998554,0.275715c0.682152,0,1.32505-0.363319,1.676849-0.95026
		C43.605293,37.274513,43.303001,36.073952,42.380638,35.522572z"/>
	<polygon class="st0" points="34.792007,30.226839 39.529469,33.059589 33.546787,23.102863 31.313763,24.438112 	"/>
	<polygon class="st0" points="12.736875,23.102863 6.754248,33.059589 11.491712,30.226839 14.969954,24.438057 	"/>
	<path class="st0" d="M23.141832,10.837631l5.491453,9.139395l2.233025-1.335194L24.257214,7.642603
		c-0.470058-0.78514-1.760761-0.78514-2.230764,0l-6.609097,10.999229l2.233025,1.335249L23.141832,10.837631z"/>
	<polygon class="st0" points="17.310156,32.81155 12.958948,35.413353 33.324825,35.413353 28.973562,32.81155 	"/>
</g>
</svg>
