<?xml version="1.0" encoding="utf-8"?>
<!-- Generator: Adobe Illustrator 22.1.0, SVG Export Plug-In . SVG Version: 6.00 Build 0)  -->
<svg version="1.0" id="Layer_1" xmlns="http://www.w3.org/2000/svg" xmlns:xlink="http://www.w3.org/1999/xlink" x="0px" y="0px"
	 viewBox="0 0 46.283684 46.202045" style="enable-background:new 0 0 46.283684 46.202045;" xml:space="preserve">
<style type="text/css">
	.st0{fill:#FFFFFF;}
</style>
<g>
	<g>
		<g>
			<g>
				<g>
					<path class="st0" d="M23.141794,39.002781h-14.2511c-0.6568,0-1.2306-0.444401-1.3952-1.080799l-7.449699-28.9235
						c-0.1983-0.77,0.2658-1.5555,1.0365-1.7538c0.7665-0.1962,1.556903,0.2644,1.7538,1.0351l7.1713,27.842701h13.134399
						c0.796,0,1.440201,0.644897,1.440201,1.440201C24.581995,38.357983,23.937794,39.002781,23.141794,39.002781z"/>
				</g>
			</g>
			<g>
				<g>
					<path class="st0" d="M37.392994,39.002781h-14.2512c-0.796,0-1.4401-0.644798-1.4401-1.440098
						c0-0.795303,0.6441-1.440201,1.4401-1.440201h13.134501l7.1712-27.842701c0.199799-0.7707,0.9902-1.232,1.753799-1.0351
						c0.770699,0.1983,1.234905,0.983799,1.036598,1.7538l-7.449799,28.9235
						C38.623592,38.55838,38.049694,39.002781,37.392994,39.002781z"/>
				</g>
			</g>
		</g>
		<g>
			<g>
				<path class="st0" d="M12.320894,18.213282c-2.1068,0-4.212199-0.6842-5.7438-2.052601
					c-0.9001-0.805899-2.2165-1.2806-3.636897-1.324199c-0.794703-0.0246-1.419103-0.6891-1.395203-1.483701
					c0.0253-0.7954,0.6793-1.4507,1.485203-1.3952c2.116597,0.0654,4.050397,0.787601,5.442797,2.0323
					c1.9605,1.7552,5.753599,1.7502,7.683204,0.0218c3.074396-2.7545,8.452496-2.7559,11.515696-0.0099
					c1.9394,1.7362,5.733898,1.7362,7.667698,0.0042c1.673607-1.5006,4.193901-2.2502,6.725403-1.9942
					c0.791901,0.0787,1.3699,0.7833,1.2911,1.5751c-0.077301,0.7918-0.797401,1.379-1.5751,1.2911
					c-1.7285-0.168799-3.454201,0.318601-4.518795,1.2728c-3.012604,2.6968-8.497606,2.6996-11.507305,0
					c-1.9394-1.7355-5.7325-1.7369-7.6663-0.0042C16.549994,17.524881,14.434694,18.213282,12.320894,18.213282z"/>
			</g>
		</g>
	</g>
	<g>
		<g>
			<path class="st0" d="M17.992994,22.062681c2.1686,0,3.660799,1.224901,3.660799,3.016701
				c0,1.068899-0.596298,1.916901-1.539999,2.168699c1.226404,0.2981,1.949301,1.2404,1.949301,2.5287
				c0,2.089901-1.6821,3.566702-4.0856,3.566702c-2.497801,0-4.070201-1.476801-4.070201-3.8339v-0.156101h2.153199
				c0.015501,1.3501,0.6751,2.1054,1.869202,2.1054c1.0998,0,1.822699-0.6765,1.822699-1.666599
				c0-1.225-0.942299-1.6329-1.994299-1.6329c-0.2363,0-0.3305,0-0.5513,0.015499v-1.570999
				c0.173,0.015499,0.2362,0.015499,0.3783,0.015499c1.2883,0,1.916901-0.4557,1.916901-1.3825
				c0-0.834-0.613201-1.3839-1.5245-1.3839c-1.036501,0-1.634298,0.660999-1.665201,1.886h-2.120899
				C14.268794,23.476082,15.668198,22.062681,17.992994,22.062681z"/>
		</g>
		<g>
			<path class="st0" d="M31.222994,27.719181c0,3.4879-1.509001,5.608799-4.006796,5.608799
				c-2.545605,0-4.068804-2.089899-4.068804-5.608799c0-2.593399,0.926901-5.6411,4.053299-5.6411
				C30.359493,22.078081,31.222994,25.125782,31.222994,27.719181z M25.347094,27.828882c0,2.497799,0.5963,3.6919,1.8536,3.6919
				c1.225,0,1.822701-1.240501,1.822701-3.801601c0-2.6243-0.565399-3.8029-1.838196-3.8029
				C25.347094,23.916281,25.347094,26.525181,25.347094,27.828882z"/>
		</g>
	</g>
	<g>
		<g>
			<path class="st0" d="M33.205593,20.913681c0.521099,0,0.749603,0.4643,0.749603,1.035101
				c0,0.5707-0.424,1.035099-0.945103,1.035099c-0.521099,0-0.945099-0.464399-0.945099-1.035099
				c0-0.570801,0.424-1.035101,0.945099-1.035101H33.205593z M33.010094,19.473482c-1.3174,0-2.3853,1.1082-2.3853,2.4753
				c0,1.367001,1.0679,2.4753,2.3853,2.4753c1.317501,0,2.3853-1.108299,2.3853-2.4753
				C35.395393,20.581682,34.327595,19.473482,33.010094,19.473482L33.010094,19.473482z"/>
		</g>
	</g>
</g>
</svg>
