<?xml version="1.0" encoding="utf-8"?>
<!-- Generator: Adobe Illustrator 22.1.0, SVG Export Plug-In . SVG Version: 6.00 Build 0)  -->
<svg version="1.0" id="Layer_1" xmlns="http://www.w3.org/2000/svg" xmlns:xlink="http://www.w3.org/1999/xlink" x="0px" y="0px"
	 viewBox="0 0 44.666992 26.666992" style="enable-background:new 0 0 44.666992 26.666992;" xml:space="preserve">
<style type="text/css">
	.st0{fill:#FFFFFF;}
</style>
<path class="st0" d="M41.166992,26.666992H3.5c-1.929688,0-3.5-1.570312-3.5-3.5V3.5C0,1.570312,1.570312,0,3.5,0h37.666992
	c1.929688,0,3.5,1.570312,3.5,3.5v19.666992C44.666992,25.09668,43.09668,26.666992,41.166992,26.666992z M3.5,1
	C2.121094,1,1,2.121094,1,3.5v19.666992c0,1.378906,1.121094,2.5,2.5,2.5h37.666992c1.378906,0,2.5-1.121094,2.5-2.5V3.5
	c0-1.378906-1.121094-2.5-2.5-2.5H3.5z"/>
<g>
	<g>
		<path class="st0" d="M15.885934,15.919384c0.479457-0.753565,0.753497-1.64405,0.753497-2.585921
			c0-2.637241-2.140678-4.777853-4.777919-4.777853s-4.777853,2.140612-4.777853,4.777853s2.140612,4.777919,4.777853,4.777919
			c0.941872,0,1.832423-0.291147,2.58592-0.77067l0.359575,0.445242c0.051387,0.068562,0.137054,0.102774,0.222654,0.102774
			h2.174891c0.154095,0,0.239761-0.171267,0.136988-0.291147L15.885934,15.919384z M14.224778,14.206841H12.23826
			c-0.154094,0-0.239761,0.188375-0.136987,0.308255l0.941872,1.147353c-0.359642,0.188375-0.753498,0.308255-1.181633,0.291148
			c-1.455608,0-2.517361-1.215847-2.517361-2.637241s1.061752-2.654414,2.517361-2.654414
			c1.455674,0,2.517361,1.23302,2.517361,2.654414C14.378873,13.624611,14.327552,13.932866,14.224778,14.206841z"/>
		<path class="st0" d="M20.355532,8.761091h-1.763863c-0.136988,0-0.239761,0.102774-0.239761,0.239761v8.648113
			c0,0.136988,0.102774,0.239761,0.239761,0.239761h1.763863c0.136988,0,0.239761-0.102774,0.239761-0.239761V9.000853
			C20.595293,8.863865,20.492519,8.761091,20.355532,8.761091z"/>
		<path class="st0" d="M34.363796,8.761091h-1.969345c-0.102772,0-0.188374,0.068494-0.222652,0.171268l-1.558384,5.120388
			l-1.712477-5.120388c-0.034279-0.102774-0.119881-0.154161-0.222654-0.154161H27.29117
			c-0.102707,0-0.188374,0.068494-0.222588,0.154161l-1.712543,5.120388l-1.592594-5.120388
			c-0.034281-0.102774-0.119881-0.171268-0.222656-0.171268h-1.969343c-0.068495,0-0.154161,0.034213-0.188375,0.102774
			c-0.051386,0.068494-0.051386,0.136988-0.034279,0.205482l2.911282,8.665288
			c0.034214,0.102707,0.119881,0.154093,0.222589,0.154093h1.575487c0.102774,0,0.188442-0.068493,0.222654-0.154093
			l1.69537-5.051895l1.69537,5.051895c0.034281,0.102707,0.119881,0.154093,0.222654,0.154093h1.575489
			c0.102774,0,0.188374-0.068493,0.222654-0.154093l2.911217-8.665288c0.017174-0.068494,0.017174-0.154161-0.034214-0.205482
			C34.517956,8.795304,34.449463,8.761091,34.363796,8.761091z"/>
		<path class="st0" d="M37.343571,8.761091h-1.763863c-0.136986,0-0.239761,0.102774-0.239761,0.239761v8.648113
			c0,0.136988,0.102776,0.239761,0.239761,0.239761h1.763863c0.13699,0,0.239761-0.102774,0.239761-0.239761V9.000853
			C37.583332,8.863865,37.463451,8.761091,37.343571,8.761091z"/>
	</g>
</g>
</svg>
