<?xml version="1.0" encoding="utf-8"?>
<!-- Generator: Adobe Illustrator 22.1.0, SVG Export Plug-In . SVG Version: 6.00 Build 0)  -->
<svg version="1.1" id="share" xmlns="http://www.w3.org/2000/svg" xmlns:xlink="http://www.w3.org/1999/xlink" x="0px" y="0px"
	 viewBox="0 0 80 80" style="enable-background:new 0 0 80 80;" xml:space="preserve">
<style type="text/css">
	.st0{fill:#FFFFFF;}
</style>
<path class="st0" d="M64,48c-4.8,0-9.1,2.1-12.1,5.5L31.6,43.3c0.2-1.1,0.4-2.2,0.4-3.3s-0.1-2.3-0.4-3.3l20.3-10.2
	C54.9,29.9,59.2,32,64,32c8.8,0,16-7.2,16-16S72.8,0,64,0S48,7.2,48,16c0,1.1,0.1,2.3,0.4,3.3L28.1,29.5C25.1,26.1,20.8,24,16,24
	C7.2,24,0,31.2,0,40s7.2,16,16,16c4.8,0,9.1-2.1,12.1-5.5l20.3,10.2C48.1,61.7,48,62.9,48,64c0,8.8,7.2,16,16,16s16-7.2,16-16
	S72.8,48,64,48z M64,8c4.4,0,8,3.6,8,8s-3.6,8-8,8s-8-3.6-8-8S59.6,8,64,8z M16,48c-4.4,0-8-3.6-8-8s3.6-8,8-8s8,3.6,8,8
	S20.4,48,16,48z M64,72c-4.4,0-8-3.6-8-8s3.6-8,8-8s8,3.6,8,8S68.4,72,64,72z"/>
</svg>
