<?xml version="1.0" encoding="utf-8"?>
<!-- Generator: Adobe Illustrator 22.1.0, SVG Export Plug-In . SVG Version: 6.00 Build 0)  -->
<svg version="1.1" id="Layer_1" xmlns="http://www.w3.org/2000/svg" xmlns:xlink="http://www.w3.org/1999/xlink" x="0px" y="0px"
	 viewBox="0 0 512 512" style="enable-background:new 0 0 512 512;" xml:space="preserve">
<style type="text/css">
	.st0{fill:#6C90D3;}
</style>
<path class="st0" d="M465.5,0.3c-0.5,0-1-0.3-1.5-0.3H234.7c-35.3,0-64,28.7-64,64v21.3c0,11.8,9.6,21.3,21.3,21.3
	s21.3-9.6,21.3-21.3V64c0-11.8,9.6-21.3,21.3-21.3h99.4l-6.5,2.2c-17.3,6-28.9,22.2-28.9,40.5v320h-64c-11.8,0-21.3-9.6-21.3-21.3
	v-42.7c0-11.8-9.6-21.3-21.3-21.3s-21.3,9.6-21.3,21.3V384c0,35.3,28.7,64,64,64h64v21.3c0,23.5,19.1,42.7,42.7,42.7
	c4.6,0,8.9-0.7,13.6-2.1l128.2-42.7c17.3-6,28.9-22.2,28.9-40.5v-384C512,17.8,490.6-1.7,465.5,0.3z"/>
<path class="st0" d="M228.4,198.2l-85.3-85.3c-6.1-6.1-15.3-7.9-23.3-4.6c-8,3.3-13.2,11.1-13.2,19.7v64H21.3
	C9.6,192,0,201.6,0,213.3c0,11.8,9.6,21.3,21.3,21.3h85.3v64c0,8.6,5.2,16.4,13.2,19.7c8,3.3,17.2,1.5,23.3-4.6l85.3-85.3
	C236.8,220.1,236.8,206.6,228.4,198.2z"/>
</svg>
