<?xml version="1.0" encoding="utf-8"?>
<!-- Generator: Adobe Illustrator 22.1.0, SVG Export Plug-In . SVG Version: 6.00 Build 0)  -->
<svg version="1.0" id="Layer_1" xmlns="http://www.w3.org/2000/svg" xmlns:xlink="http://www.w3.org/1999/xlink" x="0px" y="0px"
	 viewBox="0 0 44.666992 26.666992" style="enable-background:new 0 0 44.666992 26.666992;" xml:space="preserve">
<style type="text/css">
	.st0{fill:#FFFFFF;}
</style>
<path class="st0" d="M41.166992,26.666992H3.5c-1.929688,0-3.5-1.570312-3.5-3.5V3.5C0,1.570312,1.570312,0,3.5,0h37.666992
	c1.929688,0,3.5,1.570312,3.5,3.5v19.666992C44.666992,25.09668,43.09668,26.666992,41.166992,26.666992z M3.5,1
	C2.121094,1,1,2.121094,1,3.5v19.666992c0,1.378906,1.121094,2.5,2.5,2.5h37.666992c1.378906,0,2.5-1.121094,2.5-2.5V3.5
	c0-1.378906-1.121094-2.5-2.5-2.5H3.5z"/>
<g>
	<path class="st0" d="M21.53693,12.650723c-0.455181,0-0.73967,0.22759-0.853466,0.682772h1.308647
		C22.049009,12.935211,21.935213,12.650723,21.53693,12.650723z"/>
	<path class="st0" d="M12.376404,14.186961c-0.341387,0.227592-0.455181,0.625874-0.056898,0.739669
		c0.341387,0.113796,0.796567-0.113795,0.910363-0.455181l0.056898-0.398284
		C13.116074,14.073165,12.71779,13.959369,12.376404,14.186961z"/>
	<path class="st0" d="M35.932041,13.73178c-0.170692,0.568976,0.170692,0.96726,0.512081,0.96726
		c0.398285,0,0.625874-0.284488,0.853466-0.739669c0.113796-0.341387,0.056896-0.796568-0.056896-0.967261
		C36.899303,12.536928,36.159634,12.878315,35.932041,13.73178z"/>
	<path class="st0" d="M30.185375,14.186961c-0.341385,0.227592-0.455179,0.625874-0.056896,0.739669
		c0.341385,0.113796,0.853466-0.113795,0.910362-0.455181l0.056896-0.398284
		C30.925045,14.073165,30.526764,13.959369,30.185375,14.186961z"/>
	<path class="st0" d="M29.502604,2.864323c-2.503498,0-4.779406,0.853465-6.60013,2.332805
		c1.365543,1.308646,2.4466,2.958679,2.958677,4.836303h-0.853464c-0.568977-1.650033-1.47934-3.129373-2.731089-4.324224
		c-1.251749,1.194851-2.162111,2.67419-2.731089,4.324224h-0.853464c0.568977-1.877624,1.593134-3.527657,2.958679-4.836303
		c-1.820726-1.47934-4.039736-2.332805-6.543233-2.332805c-5.746665,0-10.412273,4.722507-10.412273,10.469172
		S9.360826,23.80267,15.16439,23.80267c2.503497,0,4.779405-0.910362,6.543233-2.332804
		c-1.365543-1.308647-2.389702-2.958681-2.958679-4.836304h0.853466c0.568977,1.650034,1.47934,3.129374,2.731089,4.324223
		c1.251749-1.194849,2.219009-2.674191,2.731087-4.324223h0.853466c-0.568977,1.877623-1.593136,3.527657-2.958679,4.836304
		c1.820724,1.479338,4.096632,2.332804,6.600128,2.332804c5.746664,0,10.412275-4.722507,10.412275-10.469172
		S35.306168,2.864323,29.502604,2.864323z M9.417725,15.780095l0.625875-3.300065l-1.47934,3.300065H7.596999L7.31251,12.423133
		l-0.682772,3.356962H5.60558l0.910363-4.665609h1.650033l0.227592,2.844883l1.251749-2.844883h1.763827l-0.910362,4.665609
		H9.417725z M14.026436,15.836994h-0.96726l-0.113795-0.227592c-0.170692,0.113795-0.341386,0.227592-0.853465,0.227592
		c-0.512078,0-1.194851-0.398284-1.081056-1.19485c0.284489-1.650033,2.162112-1.365544,2.446601-1.365544
		c0.170692-0.568976-0.284489-0.512079-0.625875-0.512079c-0.341386,0-1.024158,0.113796-1.308646,0.113796l0.170693-0.853465
		c0.682772-0.113796,1.024158-0.113796,1.251748-0.056898c1.763828,0,1.593135,1.251749,1.479341,1.763828L14.026436,15.836994z
		 M17.440296,14.642141c-0.170692,1.137954-1.422441,1.081057-1.70693,1.081057c-0.398284,0-0.739669,0-1.251749-0.113795
		l0.170692-0.796568c0.512079,0.170692,1.194852,0.113795,1.365545,0.113795c0.341385,0,0.398283-0.455181,0.113794-0.568976
		c-0.22759-0.113796-0.45518-0.284489-0.853465-0.455181c-0.22759-0.113796-0.512078-0.398284-0.341386-1.137954
		c0.170692-0.910363,1.422441-0.910363,1.593134-0.910363c0.113796,0,0.512079,0,1.024158,0.170692L17.3265,12.821416
		c-0.284489-0.056898-0.796568-0.056898-0.96726-0.113796c-0.398285,0.113796-0.227591,0.455181,0,0.568977
		c0.227591,0.056897,0.512077,0.284488,0.739668,0.398284C17.269604,13.845574,17.554092,14.073165,17.440296,14.642141z
		 M19.204124,15.609403c-0.227591,0.170692-0.512079,0.170692-0.796566,0.170692c-0.227591,0-1.024158-0.170692-0.853466-1.19485
		l0.796568-3.641451h1.024157l-0.227591,1.024158h0.568977l-0.170692,0.796567h-0.512079l-0.284489,1.536238
		c-0.056898,0.284489,0,0.568976,0.568977,0.455181L19.204124,15.609403z M22.674883,15.609403
		c-0.284489,0.113795-0.910362,0.170692-1.365543,0.170692c-1.820726,0-1.820726-1.70693-1.763828-1.934521
		c0-0.227591,0.227591-1.934521,1.934521-1.934521c1.820726,0,1.536238,1.536238,1.422441,2.162111h-2.219009
		c-0.113794,0.853465,0.568977,0.853465,0.967262,0.853465c0.455181,0,1.024157-0.056897,1.194851-0.113795L22.674883,15.609403z
		 M24.324915,14.073165l-0.341385,1.763827h-1.081057v-0.056897l0.73967-3.812144h0.910362l0.113796,0.398284
		c0.170692-0.170692,0.455181-0.398284,1.024157-0.398284l-0.284489,1.024158
		C25.178381,12.992109,24.666302,12.935211,24.324915,14.073165z M28.307753,14.585245l0.284489,0.96726
		c-0.341385,0.170692-0.682772,0.227592-1.251749,0.227592c-1.081057,0-2.275908-0.96726-1.763826-2.958679
		c0.398283-1.422442,1.650032-1.991419,2.389702-1.934521c0.853466,0.056898,1.194851,0.341386,1.422441,0.625875
		l-0.682772,0.682773c-0.284489-0.170692-0.455181-0.170692-0.796568-0.170692c-0.341389,0-1.137955,0.341386-1.251749,1.251749
		C26.487026,14.414553,27.226696,14.92663,28.307753,14.585245z M32.176796,13.73178l-0.398285,2.105214h-0.967262
		l-0.113794-0.227592c-0.170692,0.113795-0.341385,0.227592-0.853466,0.227592c-0.512079,0-1.194851-0.398284-1.081057-1.19485
		c0.284489-1.650033,2.162111-1.365544,2.4466-1.365544c0.113796-0.568976-0.284489-0.512079-0.625874-0.512079
		s-1.024158,0.113796-1.308647,0.113796l0.170694-0.853465c0.682772-0.113796,1.081057-0.113796,1.251749-0.056898
		C32.461285,11.967952,32.290592,13.2197,32.176796,13.73178z M33.713032,14.016268l-0.341385,1.763827h-1.081055l0.739666-3.869041
		h0.910362l0.113796,0.398284c0.170692-0.170692,0.455181-0.398284,1.024158-0.398284l-0.284489,1.024158
		C34.509602,12.935211,34.054417,12.878315,33.713032,14.016268z M36.9562,15.780095l-0.113796-0.284489
		c-0.227589,0.113796-0.568974,0.284489-0.910362,0.284489c-0.739666,0-1.42244-1.024158-1.081055-2.219009
		c0.512081-1.763828,1.422443-1.650032,1.991417-1.650032c0.455181,0,0.568977,0.284489,0.79657,0.455181l0.284489-1.47934h1.081055
		l-0.910362,4.8932H36.9562z"/>
</g>
</svg>
