<?xml version="1.0" encoding="utf-8"?>
<!-- Generator: Adobe Illustrator 22.1.0, SVG Export Plug-In . SVG Version: 6.00 Build 0)  -->
<svg version="1.0" id="Layer_1" xmlns="http://www.w3.org/2000/svg" xmlns:xlink="http://www.w3.org/1999/xlink" x="0px" y="0px"
	 viewBox="0 0 44.666992 26.666992" style="enable-background:new 0 0 44.666992 26.666992;" xml:space="preserve">
<style type="text/css">
	.st0{fill:#FFFFFF;}
</style>
<path class="st0" d="M41.166992,26.666992H3.5c-1.929688,0-3.5-1.570312-3.5-3.5V3.5C0,1.570312,1.570312,0,3.5,0h37.666992
	c1.929688,0,3.5,1.570312,3.5,3.5v19.666992C44.666992,25.09668,43.09668,26.666992,41.166992,26.666992z M3.5,1
	C2.121094,1,1,2.121094,1,3.5v19.666992c0,1.378906,1.121094,2.5,2.5,2.5h37.666992c1.378906,0,2.5-1.121094,2.5-2.5V3.5
	c0-1.378906-1.121094-2.5-2.5-2.5H3.5z"/>
<g>
	<g>
		<g>
			<path class="st0" d="M29.105598,14.638734c-0.938257,0-1.702484,0.764227-1.702484,1.702483
				c0,0.938257,0.764227,1.702484,1.702484,1.702484h2.913139v-3.404967H29.105598z M29.673094,16.908712h-1.134989v-1.13499
				h1.134989V16.908712z"/>
		</g>
	</g>
	<g>
		<g>
			<polygon class="st0" points="20.025684,4.083333 16.121321,8.963787 23.930048,8.963787 			"/>
		</g>
	</g>
	<g>
		<g>
			<polygon class="st0" points="24.565641,4.083333 23.022057,6.012815 25.382833,8.963787 28.470005,8.963787 			"/>
		</g>
	</g>
	<g>
		<g>
			<polygon class="st0" points="28.106808,6.693809 29.922791,8.963787 30.808083,8.963787 30.808083,6.693809 			"/>
		</g>
	</g>
	<g>
		<g>
			<path class="st0" d="M13.783243,6.693809c-0.628027,0-1.134989,0.506962-1.134989,1.134989s0.506962,1.134989,1.134989,1.134989
				h0.885292l1.815983-2.269979H13.783243z"/>
		</g>
	</g>
	<g>
		<path class="st0" d="M21.221207,13.859374h-1.384687v2.338078h1.327938c0.862593,0,1.293888-0.37833,1.293888-1.13499
			c0-0.359414-0.109715-0.646944-0.329147-0.870159C21.909767,13.972873,21.607103,13.863158,21.221207,13.859374z"/>
		<path class="st0" d="M29.105598,13.503744h2.913139v-3.404967H13.783243c-0.416162,0-0.798276-0.121066-1.134989-0.314014
			v9.961423c0,1.566286,1.271188,2.837473,2.837473,2.837473h16.53301v-3.404966h-2.913139
			c-1.566284,0-2.837473-1.271189-2.837473-2.837475C26.268126,14.778716,27.539314,13.503744,29.105598,13.503744z
			 M23.264187,16.80278c-0.499395,0.427513-1.199305,0.639378-2.088379,0.639378h-1.339289v0.393463h1.630602v1.244703h-1.630602
			v0.995008h-1.539803v-0.995008h-1.040405v-1.244703h1.040405v-0.389679h-1.040405v-1.244705h1.040405v-3.590349h2.901791
			c0.559927,0,1.051756,0.102149,1.475485,0.302664c0.423731,0.200515,0.752876,0.488045,0.987442,0.862591
			c0.234564,0.374546,0.351847,0.80206,0.351847,1.278754C24.017063,15.79264,23.763582,16.375267,23.264187,16.80278z"/>
	</g>
</g>
</svg>
