<?xml version="1.0" encoding="utf-8"?>
<!-- Generator: Adobe Illustrator 22.1.0, SVG Export Plug-In . SVG Version: 6.00 Build 0)  -->
<svg version="1.0" id="Layer_1" xmlns="http://www.w3.org/2000/svg" xmlns:xlink="http://www.w3.org/1999/xlink" x="0px" y="0px"
	 viewBox="0 0 44.666992 26.666992" style="enable-background:new 0 0 44.666992 26.666992;" xml:space="preserve">
<style type="text/css">
	.st0{fill:#FFFFFF;}
</style>
<path class="st0" d="M41.166992,26.666992H3.5c-1.929688,0-3.5-1.570312-3.5-3.5V3.5C0,1.570312,1.570312,0,3.5,0h37.666992
	c1.929688,0,3.5,1.570312,3.5,3.5v19.666992C44.666992,25.09668,43.09668,26.666992,41.166992,26.666992z M3.5,1
	C2.121094,1,1,2.121094,1,3.5v19.666992c0,1.378906,1.121094,2.5,2.5,2.5h37.666992c1.378906,0,2.5-1.121094,2.5-2.5V3.5
	c0-1.378906-1.121094-2.5-2.5-2.5H3.5z"/>
<g>
	<path class="st0" d="M21.945044,10.19041c-0.163149-0.835629-0.632282-1.383243-1.477987-1.554064
		c-0.372112-0.075159-0.75621-0.120324-1.135536-0.125014c-1.234213-0.015258-2.468742-0.004177-3.703135-0.007957
		c-0.102475-0.000316-0.14572,0.030209-0.178802,0.127391c-0.58157,1.708421-1.16733,3.415414-1.751956,5.122794
		c-0.083374,0.243496-0.165574,0.487393-0.252318,0.742886c0.591756,0,1.163776,0.006438,1.735568-0.002153
		c0.414514-0.006227,0.720062-0.20983,0.908949-0.575416c0.099203-0.192005,0.190311-0.390734,0.260038-0.594974
		c0.271059-0.793977,0.531145-1.591693,0.79945-2.386624c0.014208-0.042091,0.065996-0.101729,0.10079-0.10207
		c0.463329-0.004534,0.92733-0.013144,1.389936,0.007174c0.295393,0.012975,0.51119,0.180797,0.577944,0.476145
		c0.044043,0.194861,0.076977,0.406381,0.04907,0.601006c-0.151731,1.058161-0.529541,2.031478-1.176239,2.888092
		c-0.521429,0.690687-1.180584,1.089392-2.0933,1.040409c-0.74399-0.039927-1.493866-0.021146-2.238577,0.019023
		c-0.628033,0.033878-0.932928,0.317486-1.072781,0.818069c-0.049414,0.176865-0.11845,0.348207-0.177324,0.522476
		c-0.106542,0.315367-0.212178,0.631039-0.324268,0.964666c0.054003,0.003122,0.082045,0.006283,0.110068,0.006142
		c1.059294-0.005386,2.118629-0.007347,3.177856-0.018946c0.324995-0.003559,0.650266-0.026594,0.974439-0.052771
		c1.306084-0.105461,2.353613-0.720062,3.193813-1.690729c1.02841-1.188099,1.720581-2.564836,2.152157-4.071413
		C21.994661,11.640226,22.088221,10.923716,21.945044,10.19041z"/>
	<path class="st0" d="M35.047272,12.705775c1.123917-1.01195,2.245045-2.027,3.366558-3.041623
		c0.423412-0.383062,0.846149-0.766871,1.280811-1.160864c-0.031334-0.011583-0.039246-0.017067-0.047153-0.01707
		c-0.969551-0.000536-1.93911-0.001909-2.908634,0.002701c-0.050648,0.00024-0.112247,0.040956-0.149914,0.080688
		c-0.705681,0.744364-1.41021,1.489836-2.111366,2.238459c-0.523457,0.558885-1.041897,1.122464-1.562187,1.684307
		c-0.047955,0.051783-0.093151,0.106127-0.139626,0.159281c-0.007698-0.005051-0.0154-0.0101-0.023098-0.015153
		c0.474014-1.378643,0.948029-2.757289,1.425308-4.145405c-0.052048-0.002358-0.08881-0.005461-0.125568-0.005475
		c-0.742538-0.000278-1.485096,0.002463-2.227587-0.003182c-0.106249-0.000808-0.144432,0.037871-0.176344,0.130657
		c-0.418308,1.216442-0.840504,2.43155-1.261404,3.647101c-0.665895,1.923081-1.3316,3.846228-1.99699,5.769484
		c-0.015831,0.045759-0.026995,0.093132-0.043949,0.152393c0.817839,0,1.612131,0.001579,2.406357-0.004967
		c0.037172-0.000305,0.091505-0.066723,0.107985-0.112986c0.317459-0.89134,0.633751-1.783134,0.941608-2.677819
		c0.062096-0.180466,0.153233-0.321801,0.30542-0.440799c0.303944-0.237667,0.594391-0.492592,0.898869-0.74747
		c0.0172,0.049839,0.030109,0.084916,0.041462,0.120491c0.197575,0.61907,0.389969,1.239851,0.594009,1.85678
		c0.153526,0.464195,0.305214,0.930237,0.488483,1.383009c0.178795,0.441725,0.534405,0.634094,1.011478,0.626009
		c0.548466-0.009298,1.097214-0.002174,1.64584-0.002182c0.04567-0.000002,0.091339,0,0.153656,0
		c-0.018242-0.061441-0.029015-0.105982-0.044544-0.1488c-0.200947-0.554079-0.402542-1.107924-0.604031-1.661806
		c-0.421856-1.159625-0.843548-2.31931-1.266148-3.478664C35.002014,12.825482,34.974117,12.771636,35.047272,12.705775z"/>
	<path class="st0" d="M11.05789,15.951717c-0.203969-0.063581-0.422978-0.102075-0.636353-0.107849
		c-0.571824-0.015472-1.144572,0.00357-1.716419-0.011451c-0.500777-0.013153-0.838974-0.291022-0.98052-0.771057
		c-0.129124-0.437915-0.096718-0.878797,0.000163-1.315293c0.199263-0.897756,0.582345-1.702867,1.243482-2.356619
		c0.373708-0.369533,0.811277-0.57233,1.357603-0.55669c0.78914,0.022592,1.579401,0.006477,2.369184,0.005826
		c0.621099-0.000511,0.973115-0.242399,1.190559-0.829388c0.140684-0.379772,0.269504-0.763942,0.403373-1.146237
		c0.040146-0.114642,0.07939-0.2296,0.123409-0.357039c-0.069196,0-0.120848-0.000002-0.172499,0
		c-1.021516,0.000034-2.043063-0.004258-3.064532,0.002684c-0.315248,0.002143-0.632336,0.018234-0.945054,0.056653
		C9.103382,8.703703,8.086579,9.119153,7.264434,9.908343c-1.530558,1.469208-2.285287,3.287009-2.292068,5.406084
		c-0.002202,0.688113,0.244637,1.302978,0.702736,1.821561c0.603224,0.682867,1.397252,0.976471,2.277259,1.011782
		c1.029447,0.041306,2.061257,0.024515,3.092061,0.02787c0.039898,0.00013,0.103291-0.044081,0.116373-0.081421
		c0.138553-0.395435,0.279499-0.790575,0.399148-1.191948C11.697589,16.440529,11.516418,16.094654,11.05789,15.951717z"/>
	<path class="st0" d="M27.767593,15.838606c-1.660328-0.000156-3.320652-0.001009-4.98098,0.000514
		c-0.183825,0.00017-0.369198,0.001216-0.551161,0.023667c-0.600246,0.074056-0.898235,0.306395-1.031199,0.82815
		c-0.034813,0.136599-0.085085,0.269213-0.126959,0.40406c-0.109966,0.354113-0.219213,0.708447-0.335402,1.084219
		c0.08696,0,0.148155-0.000025,0.209349,0.000004c1.371777,0.000626,2.743559,0.003244,4.115328,0.000738
		c0.444227-0.000813,0.890245,0.007303,1.332214-0.028522c0.630543-0.051113,0.94446-0.294128,1.081724-0.855585
		c0.012285-0.050268,0.032524-0.098551,0.047878-0.148123c0.133673-0.431562,0.267069-0.863211,0.404968-1.309122
		C27.868734,15.838606,27.818165,15.838609,27.767593,15.838606z"/>
	<path class="st0" d="M28.455708,10.83734c0.188093-0.000269,0.377638-0.008959,0.563936-0.033386
		c0.47381-0.062126,0.822544-0.283344,0.951107-0.776122c0.04994-0.19141,0.116297-0.378525,0.174801-0.567713
		c0.096973-0.313578,0.193642-0.627248,0.29225-0.946747c-0.033524-0.003465-0.052032-0.007051-0.070539-0.007054
		c-1.796644-0.000359-3.593325-0.005492-5.3899,0.005594c-0.23461,0.001449-0.474188,0.068357-0.701492,0.137646
		c-0.225941,0.068872-0.398182,0.234771-0.474173,0.458175c-0.193501,0.568868-0.368023,1.144188-0.554571,1.73087
		c0.065443,0,0.112257-0.000002,0.159069,0C25.089367,10.838658,26.772537,10.83974,28.455708,10.83734z"/>
	<path class="st0" d="M22.178991,14.508965c1.683249,0.000509,3.366497,0.002448,5.049738-0.000334
		c0.202379-0.000337,0.406775-0.01275,0.606621-0.043255c0.371828-0.056755,0.704891-0.203935,0.839024-0.584655
		c0.196676-0.558263,0.362383-1.127439,0.546564-1.708613c-0.063379,0-0.108931,0-0.154484,0
		c-1.721075-0.000017-3.442146-0.000757-5.163219,0.001207c-0.150583,0.000172-0.302654,0.007822-0.451418,0.029767
		c-0.380428,0.05612-0.733721,0.188373-0.874895,0.579191c-0.202963,0.561872-0.367792,1.13752-0.555063,1.72669
		C22.087023,14.508964,22.133005,14.508951,22.178991,14.508965z"/>
</g>
</svg>
