<?xml version="1.0" encoding="utf-8"?>
<!-- Generator: Adobe Illustrator 22.1.0, SVG Export Plug-In . SVG Version: 6.00 Build 0)  -->
<svg version="1.0" id="Layer_1" xmlns="http://www.w3.org/2000/svg" xmlns:xlink="http://www.w3.org/1999/xlink" x="0px" y="0px"
	 viewBox="0 0 44.666992 26.666992" style="enable-background:new 0 0 44.666992 26.666992;" xml:space="preserve">
<style type="text/css">
	.st0{fill:#FFFFFF;}
</style>
<path class="st0" d="M41.166992,26.666992H3.5c-1.929688,0-3.5-1.570312-3.5-3.5V3.5C0,1.570312,1.570312,0,3.5,0h37.666992
	c1.929688,0,3.5,1.570312,3.5,3.5v19.666992C44.666992,25.09668,43.09668,26.666992,41.166992,26.666992z M3.5,1
	C2.121094,1,1,2.121094,1,3.5v19.666992c0,1.378906,1.121094,2.5,2.5,2.5h37.666992c1.378906,0,2.5-1.121094,2.5-2.5V3.5
	c0-1.378906-1.121094-2.5-2.5-2.5H3.5z"/>
<g>
	<path class="st0" d="M24.176359,9.738427l-2.041365,4.422956h-0.204136V8.774449h-2.903273v9.118093h2.460978
		c0.646431,0,1.236158-0.37425,1.508341-0.963978l2.041365-4.422955h0.204136v5.386932h2.903275V8.774449h-2.460978
		C25.038267,8.774449,24.44854,9.1487,24.176359,9.738427"/>
	<path class="st0" d="M13.289083,9.965245l-1.213477,4.196137H11.87147l-1.213478-4.196137
		c-0.204136-0.703136-0.850568-1.190796-1.587728-1.190796H6.166992v9.118093h2.903273V12.50561h0.204137l1.655773,5.386932
		h2.075386l1.655773-5.386932h0.204137v5.386932h2.903273V8.774449h-2.891932
		C14.139652,8.774449,13.49322,9.262109,13.289083,9.965245"/>
	<path class="st0" d="M29.393179,12.913882v4.97866h2.891932v-2.903274h3.118752c1.349567,0,2.50634-0.861909,2.925953-2.075386
		H29.393179z"/>
	<path class="st0" d="M35.403862,8.774449h-6.430298c0.385592,2.12075,2.245501,3.73116,4.47966,3.73116h4.990002
		c0.045364-0.204136,0.056705-0.408273,0.056705-0.62375C38.511269,10.169382,37.116341,8.774449,35.403862,8.774449"/>
</g>
</svg>
