<?xml version="1.0" encoding="utf-8"?>
<!-- Generator: Adobe Illustrator 22.1.0, SVG Export Plug-In . SVG Version: 6.00 Build 0)  -->
<svg version="1.0" id="Layer_1" xmlns="http://www.w3.org/2000/svg" xmlns:xlink="http://www.w3.org/1999/xlink" x="0px" y="0px"
	 viewBox="0 0 44.666992 26.666992" style="enable-background:new 0 0 44.666992 26.666992;" xml:space="preserve">
<style type="text/css">
	.st0{fill:#FFFFFF;}
</style>
<path class="st0" d="M41.166992,26.666992H3.5c-1.929688,0-3.5-1.570312-3.5-3.5V3.5C0,1.570312,1.570312,0,3.5,0h37.666992
	c1.929688,0,3.5,1.570312,3.5,3.5v19.666992C44.666992,25.09668,43.09668,26.666992,41.166992,26.666992z M3.5,1
	C2.121094,1,1,2.121094,1,3.5v19.666992c0,1.378906,1.121094,2.5,2.5,2.5h37.666992c1.378906,0,2.5-1.121094,2.5-2.5V3.5
	c0-1.378906-1.121094-2.5-2.5-2.5H3.5z"/>
<g>
	<g>
		<polygon class="st0" points="4.785272,16.548916 5.119637,16.094769 -0.000305,16.094769 -0.000305,16.548916 		"/>
		<polygon class="st0" points="5.408201,15.703077 5.744202,15.245955 -0.000305,15.245955 -0.000305,15.703077 		"/>
		<polygon class="st0" points="6.368989,14.397663 -0.000305,14.397663 -0.000305,14.854115 6.032394,14.854115 		"/>
		<polygon class="st0" points="39.906845,14.397663 39.571064,14.854636 44.666992,14.854339 44.666992,14.397663 		"/>
		<polygon class="st0" points="39.282799,15.24603 38.946503,15.703077 44.666992,15.703077 44.666992,15.24603 		"/>
		<polygon class="st0" points="44.666992,16.094769 38.658085,16.094769 38.323723,16.549437 44.666992,16.548916 		"/>
	</g>
	<polygon class="st0" points="37.232468,10.117556 34.440426,13.910419 30.018133,13.910419 32.812046,10.117556 	"/>
	<path class="st0" d="M6.138786,12.091674l1.453011-1.974118c0,0,6.475694,0,8.380369,0
		c2.128032,0,2.67175,1.68098,2.076446,2.488738c-0.437529,0.593817-0.959509,1.304126-0.959509,1.304126s-2.587804,0-3.238451,0
		c-0.615332,0-0.429661-0.252646-0.326957-0.391387c0.202391-0.273206,0.534944-0.741096,0.733614-1.010228
		c0.19562-0.265034,0.200903-0.41713-0.199419-0.41713C13.671516,12.091674,6.138786,12.091674,6.138786,12.091674z"/>
	<path class="st0" d="M12.667595,16.548904c-1.904793,0-7.116721,0-7.116721,0l2.918482-3.965559
		c0,0,3.235367,0.00003,3.621735,0.00003c0.400278,0,0.39503,0.152102,0.199415,0.417165
		c-0.198675,0.269137-0.536747,0.732048-0.739103,1.005381c-0.102738,0.138662-0.288404,0.391768,0.326873,0.391768
		c0.650658,0,4.851873,0,4.851873,0C16.326698,14.950465,15.017838,16.548904,12.667595,16.548904z"/>
	<polygon class="st0" points="20.682596,16.548904 16.507742,16.548904 18.090918,14.397689 22.265219,14.397223 	"/>
	<polygon class="st0" points="26.719082,16.548904 22.545755,16.548904 24.129005,14.397689 28.302488,14.397689 	"/>
	<polygon class="st0" points="18.449554,13.910419 21.241909,10.117556 25.415504,10.117556 23.815014,12.292425 
		25.678104,12.292425 27.279207,10.117556 31.452381,10.117556 28.660967,13.910419 	"/>
	<path class="st0" d="M30.856842,16.548904c-1.710789,0-2.174248-0.825463-1.650002-1.533887
		c0.148224-0.200398,0.453276-0.617329,0.453276-0.617329h9.482592l-1.58326,2.151216
		C37.559448,16.548904,32.832577,16.548904,30.856842,16.548904z"/>
</g>
</svg>
