<?xml version="1.0" encoding="utf-8"?>
<!-- Generator: Adobe Illustrator 22.1.0, SVG Export Plug-In . SVG Version: 6.00 Build 0)  -->
<svg version="1.0" id="Layer_1" xmlns="http://www.w3.org/2000/svg" xmlns:xlink="http://www.w3.org/1999/xlink" x="0px" y="0px"
	 viewBox="0 0 46.283684 46.202045" style="enable-background:new 0 0 46.283684 46.202045;" xml:space="preserve">
<style type="text/css">
	.st0{fill:#FFFFFF;}
</style>
<g>
	<g>
		<g>
			<path class="st0" d="M38.383858,39.782421H7.899942c-0.796082,0-1.4402-0.6441-1.4402-1.440201V7.859722
				c0-0.796,0.644117-1.4401,1.4402-1.4401h30.483915c0.796001,0,1.440083,0.6441,1.440083,1.4401V38.34222
				C39.82394,39.138321,39.179859,39.782421,38.383858,39.782421z M9.340042,36.902122h27.6036v-27.6022h-27.6036V36.902122z"/>
		</g>
	</g>
	<g>
		<g>
			<g>
				<path class="st0" d="M16.061241,33.002121c-0.796,0-1.4401-0.6441-1.4401-1.440199v-16.9219
					c0-0.796,0.6441-1.440101,1.4401-1.440101c0.796101,0,1.440201,0.6441,1.440201,1.440101v16.9219
					C17.501442,32.358021,16.857342,33.002121,16.061241,33.002121z"/>
			</g>
		</g>
		<g>
			<g>
				<path class="st0" d="M23.141142,33.002121c-0.796,0-1.440201-0.6441-1.440201-1.440199v-16.9219
					c0-0.796,0.644201-1.440101,1.440201-1.440101s1.440199,0.6441,1.440199,1.440101v16.9219
					C24.581341,32.358021,23.937141,33.002121,23.141142,33.002121z"/>
			</g>
		</g>
		<g>
			<g>
				<path class="st0" d="M30.222441,33.002121c-0.796099,0-1.440199-0.6441-1.440199-1.440199v-16.9219
					c0-0.796,0.6441-1.440101,1.440199-1.440101c0.796001,0,1.4401,0.6441,1.4401,1.440101v16.9219
					C31.66254,32.358021,31.018442,33.002121,30.222441,33.002121z"/>
			</g>
		</g>
	</g>
</g>
</svg>
