<?xml version="1.0" encoding="utf-8"?>
<!-- Generator: Adobe Illustrator 22.1.0, SVG Export Plug-In . SVG Version: 6.00 Build 0)  -->
<svg version="1.1" id="Capa_1" xmlns="http://www.w3.org/2000/svg" xmlns:xlink="http://www.w3.org/1999/xlink" x="0px" y="0px"
	 viewBox="0 0 290 377.6" style="enable-background:new 0 0 290 377.6;" xml:space="preserve">
<style type="text/css">
	.st0{fill:#FFFFFF;}
</style>
<path class="st0" d="M289.9,362.6l-13.4-258.6c-0.4-7.2-6.3-12.8-13.5-12.8h-39.5V78.5C223.5,35.2,188.3,0,145,0
	c-43.3,0-78.5,35.2-78.5,78.5v12.7H27c-7.2,0-13.1,5.6-13.5,12.8L0,363.3c-0.2,3.7,1.1,7.3,3.7,10c2.6,2.7,6.1,4.2,9.8,4.2h262.9
	c0,0,0,0,0,0c7.5,0,13.5-6.1,13.5-13.5C290,363.6,290,363.1,289.9,362.6z M85.7,146c-8,0-14.5-6.5-14.5-14.5S77.7,117,85.7,117
	s14.5,6.5,14.5,14.5S93.8,146,85.7,146z M183.2,91.2h-76.5V78.5c0-21.1,17.2-38.3,38.3-38.3c21.1,0,38.3,17.2,38.3,38.3V91.2z
	 M204.2,146c-8,0-14.5-6.5-14.5-14.5s6.5-14.5,14.5-14.5s14.5,6.5,14.5,14.5S212.3,146,204.2,146z"/>
</svg>
