<?xml version="1.0" encoding="utf-8"?>
<!-- Generator: Adobe Illustrator 22.1.0, SVG Export Plug-In . SVG Version: 6.00 Build 0)  -->
<svg version="1.0" id="Layer_1" xmlns="http://www.w3.org/2000/svg" xmlns:xlink="http://www.w3.org/1999/xlink" x="0px" y="0px"
	 viewBox="0 0 44.666992 26.666992" style="enable-background:new 0 0 44.666992 26.666992;" xml:space="preserve">
<style type="text/css">
	.st0{fill:#FFFFFF;}
</style>
<path class="st0" d="M41.166992,26.666992H3.5c-1.929688,0-3.5-1.570312-3.5-3.5V3.5C0,1.570312,1.570312,0,3.5,0h37.666992
	c1.929688,0,3.5,1.570312,3.5,3.5v19.666992C44.666992,25.09668,43.09668,26.666992,41.166992,26.666992z M3.5,1
	C2.121094,1,1,2.121094,1,3.5v19.666992c0,1.378906,1.121094,2.5,2.5,2.5h37.666992c1.378906,0,2.5-1.121094,2.5-2.5V3.5
	c0-1.378906-1.121094-2.5-2.5-2.5H3.5z"/>
<path class="st0" d="M26.91954,11.055262v6.252796l-9.632261,3.134037l7.618505-5.190109v-4.196724V3.8125
	c0,0-5.451828,4.338744-7.152693,5.608403c-2.054455,1.533618-2.137612,2.163143-2.137612,3.155225l-0.000216,7.608152
	c0,0.712278,0.582968,1.295212,1.295181,1.295212h12.141285V11.055262H26.91954z M21.424316,10.838211
	c0.445534-0.530832,1.096182-0.718273,1.453438-0.418453c0.357258,0.299809,0.285856,0.973311-0.159676,1.504144
	c-0.44528,0.530828-1.096148,0.718018-1.453407,0.418205C20.907383,12.042291,20.978975,11.369004,21.424316,10.838211z"/>
</svg>
