<?xml version="1.0" encoding="utf-8"?>
<!-- Generator: Adobe Illustrator 22.1.0, SVG Export Plug-In . SVG Version: 6.00 Build 0)  -->
<svg version="1.0" id="Layer_1" xmlns="http://www.w3.org/2000/svg" xmlns:xlink="http://www.w3.org/1999/xlink" x="0px" y="0px"
	 viewBox="0 0 46.283684 46.202045" style="enable-background:new 0 0 46.283684 46.202045;" xml:space="preserve">
<style type="text/css">
	.st0{fill:#FFFFFF;}
</style>
<path class="st0" d="M40.175415,35.107998c-0.328636,0-0.651451-0.088932-0.933849-0.257423l-16.100349-9.62602L7.042134,34.849308
	c-0.282399,0.169758-0.606394,0.25869-0.933847,0.25869c-0.638456,0-1.237677-0.34053-1.565216-0.887527
	c-0.250421-0.417732-0.32273-0.90786-0.202919-1.380096c0.11863-0.472328,0.414105-0.869812,0.833021-1.12023l14.416504-8.619699
	L5.171993,14.479484c-0.417734-0.249155-0.71321-0.646724-0.83184-1.118963c-0.11981-0.472323-0.047503-0.962365,0.202919-1.380099
	c0.326357-0.546994,0.926761-0.88643,1.566397-0.88643c0.327454,0,0.650268,0.089013,0.931485,0.256327l16.100264,9.626021
	l16.100349-9.62484c0.282398-0.168494,0.605213-0.257508,0.932667-0.257508c0.638454,0,1.238861,0.339436,1.566399,0.88643
	c0.250332,0.417734,0.322727,0.907776,0.202915,1.380099c-0.118629,0.472239-0.414104,0.869808-0.833019,1.120145
	l-14.416504,8.61978l14.417686,8.620962c0.417732,0.249155,0.713207,0.646639,0.831837,1.118967
	c0.119812,0.472237,0.047417,0.962364-0.202915,1.380096C41.413094,34.767467,40.813869,35.107998,40.175415,35.107998z"/>
<g>
	<polygon class="st0" points="35.399883,17.481184 37.95797,15.9517 37.95797,12.531273 35.399883,14.060485 	"/>
	<polygon class="st0" points="10.883806,18.582748 8.325668,17.053156 8.325668,29.146023 10.883806,27.616432 	"/>
	<path class="st0" d="M35.399883,35.358982H10.883806v-2.118671l-2.558138,1.52932v1.868446
		c0,0.706985,0.572059,1.279152,1.279042,1.279152h27.074162c0.707092,0,1.279099-0.572166,1.279099-1.279152v-1.867199
		l-2.558086-1.529373V35.358982z"/>
	<polygon class="st0" points="10.883806,14.060539 8.325668,12.53111 8.325668,15.951158 10.883806,17.480751 	"/>
	<polygon class="st0" points="35.399883,27.616539 37.95797,29.146132 37.95797,17.053427 35.399883,18.582911 	"/>
	<path class="st0" d="M36.678871,8.284822H9.60471c-0.706984,0-1.279042,0.572167-1.279042,1.279097v1.865356l2.558138,1.529429
		v-2.115691h24.516079v2.115636l2.558086-1.529212v-1.86552C37.95797,8.85699,37.385963,8.284822,36.678871,8.284822z"/>
	<polygon class="st0" points="35.399883,32.139832 37.95797,33.669205 37.95797,30.248238 35.399883,28.718538 	"/>
	<polygon class="st0" points="10.883806,28.718267 8.325668,30.247913 8.325668,33.668015 10.883806,32.138638 	"/>
</g>
<g>
	<path class="st0" d="M13.19627,19.985392l-2.128703-1.272762c-0.947248,2.597589-1.08114,5.512663-0.167676,8.341631
		c0.048099,0.149137,0.107784,0.291632,0.160877,0.437986l2.127521-1.272041
		C12.528089,24.112976,12.577423,21.950747,13.19627,19.985392z"/>
	<path class="st0" d="M14.877409,16.743721l-2.088845-1.248867c-0.480472,0.655924-0.897499,1.353357-1.246293,2.085857
		l2.095849,1.253092C13.971051,18.093424,14.382053,17.389708,14.877409,16.743721z"/>
	<path class="st0" d="M32.655098,18.828138l2.096104-1.253296c-0.351212-0.74136-0.761028-1.443838-1.235477-2.092347
		l-2.103006,1.257363C31.901175,17.377193,32.318714,18.076118,32.655098,18.828138z"/>
	<path class="st0" d="M35.383854,19.146496c-0.0481-0.149086-0.107838-0.29163-0.160881-0.437935l-2.127571,1.272095
		c0.660198,2.107229,0.611069,4.26956-0.007465,6.235069l2.128857,1.272867
		C36.163628,24.890949,36.297264,21.975775,35.383854,19.146496z"/>
	<path class="st0" d="M31.407209,29.457756l2.088999,1.248972c0.48037-0.655977,0.897293-1.35346,1.246037-2.086065
		l-2.096058-1.253244C32.313412,28.107952,31.902462,28.811718,31.407209,29.457756z"/>
	<path class="st0" d="M13.628489,27.372826l-2.095901,1.253141c0.351265,0.741306,0.760981,1.443785,1.235427,2.092348
		l2.102698-1.25716C14.382259,28.82382,13.964871,28.124895,13.628489,27.372826z"/>
	<path class="st0" d="M26.348755,33.03138c-1.043083,0.337002-2.122938,0.507919-3.208712,0.507919
		c-2.88644,0-5.547373-1.177231-7.464215-3.143824l-2.131125,1.274204c2.384338,2.677565,5.833904,4.299845,9.595341,4.299845
		c1.339762,0,2.669994-0.211193,3.956251-0.626575c2.252865-0.727196,4.1574-2.029465,5.62817-3.681868l-2.125202-1.270651
		C29.453388,31.566996,28.017275,32.492561,26.348755,33.03138z"/>
	<path class="st0" d="M19.936119,13.170665c1.044268-0.337052,2.124123-0.50792,3.209896-0.50792
		c2.885309,0,5.545158,1.176926,7.461487,3.142743l2.131538-1.274411c-2.383877-2.67705-5.832516-4.298555-9.593025-4.298555
		c-1.339762,0-2.671179,0.210008-3.957434,0.626571c-2.25271,0.727095-4.157247,2.029263-5.628173,3.68146l2.125151,1.2706
		C16.831587,14.634845,18.2677,13.709433,19.936119,13.170665z"/>
</g>
</svg>
