<?xml version="1.0" encoding="utf-8"?>
<!-- Generator: Adobe Illustrator 22.1.0, SVG Export Plug-In . SVG Version: 6.00 Build 0)  -->
<svg version="1.1" id="Layer_1" xmlns="http://www.w3.org/2000/svg" xmlns:xlink="http://www.w3.org/1999/xlink" x="0px" y="0px"
	 viewBox="0 0 381 395" style="enable-background:new 0 0 381 395;" xml:space="preserve">
<style type="text/css">
	.st0{fill:#99B7E0;}
</style>
<g>
	<path class="st0" d="M118.4,109.4c22.4,0,40-12.8,40-28.8s-17.6-28.8-40-28.8s-40,12.8-40,28.8S96,109.4,118.4,109.4 M118.4,67.8
		c13.6,0,24,7.2,24,12.8c0,6.4-10.4,12.8-24,12.8s-24-7.2-24-12.8C94.4,74.2,104.8,67.8,118.4,67.8z"/>
	<path class="st0" d="M340.8,144.6h-104v-64c0-44-52.8-80-118.4-80S0,36.6,0,80.6v163.2c0,36,36,68,87.2,77.6V387c0,4.8,3.2,8,8,8
		h245.6c22.4,0,40-17.6,40-40V184.6C380.8,162.2,363.2,144.6,340.8,144.6 M220.8,144.6h-32c12.8-6.4,24-14.4,32-24V144.6z
		 M118.4,16.6c56.8,0,102.4,28.8,102.4,64s-45.6,64-102.4,64S16,115.8,16,80.6S61.6,16.6,118.4,16.6z M364.8,354.2
		c0,13.6-10.4,24-24,24h-9.6v-36.8c0-4.8-3.2-8-8-8c-4.8,0-8,3.2-8,8v36.8h-29.6v-36.8c0-4.8-3.2-8-8-8c-4.8,0-8,3.2-8,8v36.8H240
		v-36.8c0-4.8-3.2-8-8-8s-8,3.2-8,8v36.8h-29.6v-36.8c0-4.8-3.2-8-8-8c-4.8,0-8,3.2-8,8v36.8h-29.6v-36.8c0-4.8-3.2-8-8-8
		s-8,3.2-8,8v36.8h-28v-61.6c0-0.8,0.8-1.6,0.8-1.6c0-1.6,0-2.4-0.8-4v-86.4h237.6c8.8,0,17.6-3.2,24-8v137.6H364.8z M340.8,208.6
		H95.2c-4.8,0-8,3.2-8,8v88C45.6,295.8,16,271.8,16,243.8V120.6c20.8,24,58.4,40,102.4,40h222.4c13.6,0,24,10.4,24,24
		C364.8,198.2,354.4,208.6,340.8,208.6z"/>
</g>
</svg>
