<?xml version="1.0" encoding="utf-8"?>
<!-- Generator: Adobe Illustrator 22.1.0, SVG Export Plug-In . SVG Version: 6.00 Build 0)  -->
<svg version="1.0" id="Layer_1" xmlns="http://www.w3.org/2000/svg" xmlns:xlink="http://www.w3.org/1999/xlink" x="0px" y="0px"
	 viewBox="0 0 46.283684 46.202045" style="enable-background:new 0 0 46.283684 46.202045;" xml:space="preserve">
<style type="text/css">
	.st0{fill:#FFFFFF;}
</style>
<g>
	<g>
		<g>
			<path class="st0" d="M23.142591,38.349323c-8.407599,0-15.2483-6.840801-15.2483-15.248301s6.8407-15.248301,15.2483-15.248301
				c8.407499,0,15.246801,6.8408,15.246801,15.248301S31.550091,38.349323,23.142591,38.349323z M23.142591,10.733122
				c-6.8197,0-12.368,5.548201-12.368,12.367901s5.5483,12.367998,12.368,12.367998
				c6.818199,0,12.366499-5.5483,12.366499-12.367998S29.960791,10.733122,23.142591,10.733122z"/>
		</g>
	</g>
	<g>
		<g>
			<path class="st0" d="M29.382792,28.792723h-2.9802l-1.0182-2.8901h-4.815599l-1.0548,2.8901h-2.907001l4.925207-12.957201
				h2.925293L29.382792,28.792723z M22.984991,19.015423l-1.725599,4.815498h3.434401L22.984991,19.015423z"/>
		</g>
	</g>
</g>
</svg>
