<?xml version="1.0" encoding="utf-8"?>
<!-- Generator: Adobe Illustrator 22.1.0, SVG Export Plug-In . SVG Version: 6.00 Build 0)  -->
<svg version="1.0" id="Layer_1" xmlns="http://www.w3.org/2000/svg" xmlns:xlink="http://www.w3.org/1999/xlink" x="0px" y="0px"
	 viewBox="0 0 46.283684 46.202045" style="enable-background:new 0 0 46.283684 46.202045;" xml:space="preserve">
<style type="text/css">
	.st0{fill:#FFFFFF;}
</style>
<g>
	<g>
		<g>
			<path class="st0" d="M27.642447,29.443771c0,1.342201-1.088001,2.4303-2.430201,2.4303s-2.4303-1.088099-2.4303-2.4303
				c0-1.342199,1.0881-2.4303,2.4303-2.4303S27.642447,28.101572,27.642447,29.443771z"/>
		</g>
	</g>
	<g>
		<g>
			<path class="st0" d="M42.852146,37.46117h-39.4202c-0.4711,0-0.9128-0.230698-1.1828-0.618896
				c-0.268586-0.386703-0.3319-0.881802-0.1674-1.323402c0.211-0.565399,5.289599-13.8573,17.020399-13.8573h18.585701
				l-2.5709-10.0404H16.455246c-0.796,0-1.4401-0.6441-1.4401-1.4401c0-0.796101,0.6441-1.440201,1.4401-1.440201h19.7798
				c0.658199,0,1.231998,0.445801,1.3951,1.0829l6.617199,25.84c0.109699,0.430298,0.015499,0.888798-0.257401,1.240398
				C43.717144,37.255772,43.296646,37.46117,42.852146,37.46117z M5.682247,34.580772h35.314899l-2.5709-10.0389h-19.3241
				C11.828246,24.541872,7.445847,31.187172,5.682247,34.580772z"/>
		</g>
	</g>
</g>
</svg>
