<?xml version="1.0" encoding="utf-8"?>
<!-- Generator: Adobe Illustrator 22.1.0, SVG Export Plug-In . SVG Version: 6.00 Build 0)  -->
<svg version="1.1" id="Layer_1" xmlns="http://www.w3.org/2000/svg" xmlns:xlink="http://www.w3.org/1999/xlink" x="0px" y="0px"
	 viewBox="0 0 50.3 50" style="enable-background:new 0 0 50.3 50;" xml:space="preserve">
<style type="text/css">
	.st0{fill:#F89731;}
</style>
<g>
	<path class="st0" d="M25.2,20.3c-2.6,0-4.7,2.1-4.7,4.7s2.1,4.7,4.7,4.7s4.7-2.1,4.7-4.7S27.8,20.3,25.2,20.3z"/>
	<path class="st0" d="M36.5,18.8c0-2.9-2.3-5.2-5.2-5.2H18.8c-2.9,0-5.2,2.3-5.2,5.2v12.5c0,2.9,2.3,5.2,5.2,5.2h12.5
		c2.9,0,5.2-2.3,5.2-5.2l0,0V18.8z M25.2,32.2c-4,0-7.2-3.2-7.2-7.2s3.2-7.2,7.2-7.2s7.2,3.2,7.2,7.2S29.2,32.2,25.2,32.2z M34,18.8
		c-0.3,0.3-0.8,0.5-1.3,0.5s-0.9-0.2-1.3-0.5c-0.3-0.3-0.5-0.8-0.5-1.3s0.2-0.9,0.5-1.3c0.3-0.3,0.8-0.5,1.3-0.5s0.9,0.2,1.3,0.5
		c0.3,0.3,0.5,0.8,0.5,1.3S34.3,18.5,34,18.8z"/>
	<path class="st0" d="M25.2,0c-13.8,0-25,11.2-25,25s11.2,25,25,25s25-11.2,25-25S39,0,25.2,0z M39,31.2c0,4.2-3.4,7.7-7.7,7.7H18.8
		c-4.2,0-7.7-3.4-7.7-7.7V18.8c0-4.2,3.4-7.7,7.7-7.7h12.5c4.2,0,7.7,3.4,7.7,7.7V31.2z"/>
</g>
</svg>
