<?xml version="1.0" encoding="utf-8"?>
<!-- Generator: Adobe Illustrator 22.1.0, SVG Export Plug-In . SVG Version: 6.00 Build 0)  -->
<svg version="1.1" id="Layer_1" xmlns="http://www.w3.org/2000/svg" xmlns:xlink="http://www.w3.org/1999/xlink" x="0px" y="0px"
	 viewBox="0 0 50.3 50" style="enable-background:new 0 0 50.3 50;" xml:space="preserve">
<style type="text/css">
	.st0{fill:#99B6DF;}
	.st1{fill:#FFFFFF;}
</style>
<g>
	<path class="st0" d="M25.2,50c-13.8,0-25-11.2-25-25s11.2-25,25-25s25,11.2,25,25S38.9,50,25.2,50z M25.2,1.6
		C12.3,1.6,1.8,12.1,1.8,25s10.3,23.4,23.3,23.4S48.5,37.9,48.5,25S38,1.6,25.2,1.6z"/>
</g>
<g>
	<g>
		<path class="st1" d="M31.4,11H18.9c-4.2,0-7.7,3.4-7.7,7.7v12.5c0,4.2,3.4,7.7,7.7,7.7h12.5c4.2,0,7.7-3.4,7.7-7.7V18.8
			C39,14.5,35.7,11,31.4,11z M36.5,31.2c0,2.9-2.3,5.2-5.2,5.2H18.9c-2.9,0-5.2-2.3-5.2-5.2V18.8c0-2.9,2.3-5.2,5.2-5.2h12.5
			c2.9,0,5.2,2.3,5.2,5.2V31.2L36.5,31.2z"/>
		<path class="st1" d="M25.2,17.9c-4,0-7.2,3.2-7.2,7.2s3.2,7.2,7.2,7.2s7.2-3.2,7.2-7.2S29.2,17.9,25.2,17.9z M25.2,29.8
			c-2.6,0-4.7-2.1-4.7-4.7s2.1-4.7,4.7-4.7c2.6,0,4.7,2.1,4.7,4.7C29.9,27.5,27.8,29.8,25.2,29.8z"/>
		<path class="st1" d="M32.7,15.8c-0.5,0-0.9,0.2-1.3,0.5c-0.3,0.3-0.5,0.8-0.5,1.3s0.2,0.9,0.5,1.3c0.3,0.3,0.8,0.5,1.3,0.5
			s0.9-0.2,1.3-0.5c0.3-0.3,0.5-0.8,0.5-1.3s-0.2-0.9-0.5-1.3C33.5,15.9,33,15.8,32.7,15.8z"/>
	</g>
</g>
</svg>
