<?xml version="1.0" encoding="utf-8"?>
<!-- Generator: Adobe Illustrator 22.1.0, SVG Export Plug-In . SVG Version: 6.00 Build 0)  -->
<svg version="1.1" id="Layer_2" xmlns="http://www.w3.org/2000/svg" xmlns:xlink="http://www.w3.org/1999/xlink" x="0px" y="0px"
	 viewBox="0 0 159 52.4" style="enable-background:new 0 0 159 52.4;" xml:space="preserve">
<style type="text/css">
	.st0{fill:#FFFFFF;}
</style>
<g>
	<g>
		<path class="st0" d="M4.7,45.8v6.6H3.5c-0.5,0-0.9-0.1-1.1-0.3c-0.2-0.2-0.3-0.5-0.3-0.9v-13h11v0.7c0,0.3-0.1,0.6-0.3,0.8
			c-0.2,0.2-0.6,0.3-1.2,0.3H4.7v4h7.6v0.7c0,0.3-0.1,0.6-0.3,0.8c-0.2,0.2-0.6,0.3-1.3,0.3H4.7z"/>
		<path class="st0" d="M18,50.6h7.7v0.7c0,0.4-0.1,0.7-0.3,0.9c-0.2,0.2-0.6,0.3-1.1,0.3h-9V38.2H18V50.6z"/>
		<path class="st0" d="M39.8,52.4h-7.1c-0.8,0-1.5-0.1-2.1-0.2c-0.6-0.1-1.1-0.3-1.5-0.6c-0.4-0.3-0.7-0.7-0.9-1.2
			c-0.2-0.5-0.3-1.1-0.3-1.9V38.2h2.7v10.4c0,0.4,0,0.7,0.1,0.9c0.1,0.3,0.2,0.5,0.4,0.6c0.2,0.2,0.4,0.3,0.7,0.3
			c0.3,0.1,0.6,0.1,1.1,0.1h4.4V38.2h2.7V52.4z"/>
		<path class="st0" d="M46,46.4v6h-1.2c-0.5,0-0.9-0.1-1.1-0.3c-0.2-0.2-0.3-0.5-0.3-0.9v-13H50c0.8,0,1.5,0.1,2.1,0.2
			c0.6,0.2,1.1,0.4,1.5,0.7c0.4,0.3,0.7,0.6,0.9,1c0.2,0.4,0.3,0.8,0.3,1.3V43c0,0.3-0.1,0.7-0.2,1c-0.1,0.3-0.3,0.6-0.5,0.9
			c-0.2,0.3-0.5,0.5-0.9,0.8c-0.3,0.2-0.8,0.4-1.3,0.5c0.5,1,1.1,2.1,1.7,3.1c0.6,1.1,1.2,2.1,1.8,3.1h-2.9l-3.3-6H46z M46,40.1v4.5
			H50c0.7,0,1.3-0.1,1.6-0.4c0.4-0.3,0.6-0.7,0.6-1.3v-1c0-0.5-0.2-1-0.5-1.2c-0.4-0.3-0.9-0.5-1.6-0.5H46z"/>
		<path class="st0" d="M64.2,38c2.3,0,3.9,0.5,5,1.5c1.1,1,1.6,2.5,1.6,4.4v2.9c0,1.9-0.5,3.3-1.6,4.4c-1.1,1-2.7,1.5-5,1.5
			c-2.2,0-3.9-0.5-5-1.5c-1.1-1-1.6-2.5-1.6-4.4v-2.9c0-1.9,0.5-3.4,1.6-4.4C60.3,38.5,62,38,64.2,38z M68.2,43.9
			c0-0.6-0.1-1.1-0.2-1.6c-0.1-0.5-0.4-0.9-0.7-1.3c-0.3-0.3-0.7-0.6-1.2-0.8c-0.5-0.2-1.1-0.3-1.9-0.3c-0.8,0-1.4,0.1-1.9,0.3
			c-0.5,0.2-0.9,0.5-1.2,0.9c-0.3,0.4-0.6,0.8-0.7,1.3c-0.1,0.5-0.2,1-0.2,1.6v2.9c0,2.7,1.3,4.1,4,4c2.6,0.1,4-1.3,4-4V43.9z"/>
		<path class="st0" d="M83.4,47.2v5.2h-1.2c-0.5,0-0.9-0.1-1.1-0.3c-0.2-0.2-0.3-0.5-0.3-0.9v-13H87c0.8,0,1.5,0.1,2.1,0.2
			c0.6,0.1,1.1,0.3,1.6,0.6c0.4,0.3,0.8,0.7,1,1.1c0.2,0.5,0.3,1,0.3,1.7v1.8c0,0.3,0,0.7-0.1,1.1c-0.1,0.4-0.3,0.8-0.6,1.2
			c-0.3,0.4-0.8,0.7-1.5,0.9c-0.7,0.2-1.6,0.4-2.7,0.4H83.4z M83.4,40.1v5.3H87c1.6,0,2.4-0.6,2.4-1.8v-1.8c0-0.5-0.2-1-0.5-1.3
			c-0.4-0.3-1-0.5-1.8-0.5H83.4z"/>
		<path class="st0" d="M101.3,38c2.3,0,3.9,0.5,5,1.5c1.1,1,1.6,2.5,1.6,4.4v2.9c0,1.9-0.5,3.3-1.6,4.4c-1.1,1-2.7,1.5-5,1.5
			c-2.2,0-3.9-0.5-5-1.5c-1.1-1-1.6-2.5-1.6-4.4v-2.9c0-1.9,0.5-3.4,1.6-4.4C97.4,38.5,99,38,101.3,38z M105.2,43.9
			c0-0.6-0.1-1.1-0.2-1.6c-0.1-0.5-0.4-0.9-0.7-1.3c-0.3-0.3-0.7-0.6-1.2-0.8c-0.5-0.2-1.1-0.3-1.9-0.3c-0.8,0-1.4,0.1-1.9,0.3
			c-0.5,0.2-0.9,0.5-1.2,0.9c-0.3,0.4-0.6,0.8-0.7,1.3c-0.1,0.5-0.2,1-0.2,1.6v2.9c0,2.7,1.3,4.1,4,4c2.6,0.1,4-1.3,4-4V43.9z"/>
		<path class="st0" d="M129.6,38.2l-4,14.2h-1.7c-1,0-1.6-0.4-1.9-1.3l-2.5-8.3l-2.9,9.6h-1.6c-0.6,0-1.1-0.1-1.3-0.3
			c-0.3-0.2-0.5-0.5-0.6-1l-3.6-12.9h2.7l3,11.4l3.2-10.2h2.6l3.1,10.2l3-11.4H129.6z"/>
		<path class="st0" d="M131.4,52.4V38.2h10.7v0.6c0,0.4-0.1,0.7-0.3,0.9c-0.2,0.2-0.6,0.3-1.2,0.3h-6.6v4h7.4v0.7
			c0,0.3-0.1,0.6-0.3,0.8c-0.2,0.2-0.6,0.3-1.2,0.3h-5.9v4.8h8.3v0.7c0,0.3-0.1,0.6-0.3,0.8c-0.2,0.2-0.6,0.3-1.2,0.3H131.4z"/>
		<path class="st0" d="M147.8,46.4v6h-1.3c-0.5,0-0.9-0.1-1.1-0.3c-0.2-0.2-0.3-0.5-0.3-0.9v-13h6.8c0.8,0,1.5,0.1,2.1,0.2
			c0.6,0.2,1.1,0.4,1.5,0.7c0.4,0.3,0.7,0.6,0.9,1c0.2,0.4,0.3,0.8,0.3,1.3V43c0,0.3-0.1,0.7-0.2,1c-0.1,0.3-0.3,0.6-0.5,0.9
			c-0.2,0.3-0.5,0.5-0.9,0.8c-0.3,0.2-0.8,0.4-1.2,0.5c0.5,1,1.1,2.1,1.7,3.1c0.6,1.1,1.2,2.1,1.8,3.1h-2.9l-3.3-6H147.8z
			 M147.8,40.1v4.5h4.1c0.7,0,1.3-0.1,1.6-0.4c0.4-0.3,0.6-0.7,0.6-1.3v-1c0-0.5-0.2-1-0.5-1.2c-0.4-0.3-0.9-0.5-1.6-0.5H147.8z"/>
	</g>
	<g>
		<path class="st0" d="M119.7,2.5c-3.7-1.8-7.9-2.5-12-2.5c-5,0-9.9,1-14.4,3.1c-4.3,2.1-8.1,5.1-11.6,8.3c-0.3,0.3-0.5,0.5-0.8,0.8
			c-0.9-0.9-1.9-1.9-2.8-2.8c-2.8-2.7-5.9-5.1-9.5-6.7c-4.4-2-9.1-2.8-13.9-2.7c-5,0.1-9.8,1.2-14.1,3.8c-4.1,2.4-7.6,6.3-9.3,10.8
			c-1.1,2.9-0.8,6,0.5,8.8c1.4,3,4,5.2,6.9,6.6c4.2,2,8.9,2.7,13.5,2.5c4.7-0.2,9.4-1.4,13.6-3.6c4.2-2.3,7.8-5.3,11.2-8.6
			c0.1-0.1,0.2-0.2,0.3-0.2c1,1,2,2.1,3.1,3.1c2.8,2.7,5.9,5.1,9.5,6.7c4.4,2,9.1,2.8,13.9,2.7c5-0.1,9.8-1.2,14.1-3.8
			c4.1-2.4,7.6-6.3,9.3-10.8c1.1-2.9,0.8-6-0.5-8.8C125.2,6.1,122.6,3.9,119.7,2.5z M37.2,10.7L37.2,10.7 M73.6,19.5
			c-0.1,0.1-0.2,0.2-0.3,0.3c-0.4,0.3-0.8,0.6-1.1,1c-0.4,0.3-0.7,0.6-1.1,0.9c0,0,0,0-0.1,0c-0.2,0.1-0.3,0.2-0.5,0.3
			c-0.4,0.3-0.8,0.5-1.2,0.8c-0.2,0.1-0.4,0.2-0.6,0.4c-0.1,0-0.1,0.1-0.2,0.1c-0.8,0.5-1.7,0.9-2.6,1.3c-0.2,0.1-0.4,0.2-0.6,0.2
			c0,0-0.1,0-0.1,0c-0.4,0.2-0.8,0.3-1.3,0.4c-0.9,0.3-1.8,0.5-2.7,0.7c-0.9,0.2-1.8,0.3-2.7,0.4c-0.1,0-0.5,0-0.5,0
			c-0.2,0-0.5,0-0.8,0c-0.6,0-1.1,0-1.7,0c-3.7,0-7.5-0.5-10.9-2c-3.1-1.4-5.8-3.6-7.3-6.7c-0.5-1.2-0.8-2.5-0.8-3.8
			c0-0.3,0-0.6,0-0.9c0,0,0-0.1,0-0.1c0-0.2,0.1-0.4,0.1-0.6c0.1-0.3,0.1-0.6,0.2-1c0-0.1,0.1-0.3,0.1-0.4c0,0,0,0,0-0.1
			c0.1-0.3,0.2-0.5,0.4-0.8c0.1-0.1,0.2-0.2,0.2-0.4c0,0,0.1-0.1,0.1-0.1c0,0,0.1-0.1,0.1-0.1c0.1-0.1,0.2-0.1,0.2-0.2c0,0,0,0,0,0
			C38.4,9,38.6,9,38.7,8.9c0.2-0.1,0.3-0.2,0.5-0.3c0.4-0.2,0.8-0.4,1.2-0.6c0.3-0.1,0.6-0.2,0.8-0.3c0.1,0,0.2-0.1,0.3-0.1
			c0.2-0.1,0.5-0.2,0.7-0.2c0.9-0.3,1.9-0.5,2.8-0.7c0.5-0.1,1-0.2,1.5-0.2c0.2,0,0.5-0.1,0.7-0.1c0.1,0,0.1,0,0.2,0
			c0,0,0.2,0,0.3,0c1.2-0.1,2.3-0.1,3.5-0.1c4,0.1,7.9,0.8,11.5,2.4c4.9,2.2,8.6,5.8,12.3,9.5C74.7,18.5,74.1,19,73.6,19.5z
			 M121.7,19.6c0,0,0,0.1,0,0.1c0,0.2-0.1,0.4-0.1,0.6c-0.1,0.3-0.1,0.6-0.2,1c0,0.1-0.1,0.3-0.1,0.4c0,0,0,0,0,0.1
			c-0.1,0.3-0.2,0.5-0.4,0.8c-0.1,0.1-0.2,0.2-0.2,0.4c0,0-0.1,0.1-0.1,0.2c0,0-0.1,0.1-0.1,0.1c-0.1,0.1-0.2,0.1-0.2,0.2
			c0,0,0,0,0,0c-0.1,0.1-0.2,0.2-0.3,0.2c-0.2,0.1-0.3,0.2-0.5,0.3c-0.4,0.2-0.8,0.4-1.2,0.6c-0.3,0.1-0.6,0.2-0.8,0.3
			c-0.1,0-0.2,0.1-0.3,0.1c-0.2,0.1-0.5,0.2-0.7,0.2c-0.9,0.3-1.9,0.5-2.8,0.7c-0.5,0.1-1,0.2-1.5,0.2c-0.2,0-0.5,0.1-0.7,0.1
			c-0.1,0-0.1,0-0.2,0c0,0-0.2,0-0.3,0c-1.2,0.1-2.3,0.1-3.5,0.1c-4-0.1-7.9-0.8-11.5-2.4c-5-2.3-8.8-6-12.6-9.8
			c0,0,0.1-0.1,0.1-0.1c0.3-0.3,0.6-0.6,1-0.9c0.1-0.1,0.3-0.3,0.4-0.4c0.6-0.5,1.2-1.1,1.9-1.6c0.1-0.1,0.3-0.2,0.4-0.3
			c0.3-0.2,0.7-0.5,1-0.7c0.4-0.2,0.7-0.5,1.1-0.7c0.1-0.1,0.2-0.2,0.4-0.2c0,0,0.1,0,0.1-0.1c0.8-0.4,1.6-0.8,2.4-1.2
			C91.9,8,92.1,8,92.3,7.9c0.1,0,0.2-0.1,0.2-0.1c0.4-0.1,0.8-0.3,1.1-0.4c0.9-0.3,1.9-0.5,2.9-0.7c1-0.2,2-0.3,3-0.4
			c0.1,0,0.5,0,0.6,0c0.3,0,0.6,0,0.9-0.1c0.6,0,1.2,0,1.8,0c3.7,0,7.5,0.5,10.9,2c3.1,1.4,5.8,3.6,7.3,6.7c0.5,1.2,0.8,2.5,0.8,3.8
			C121.7,19,121.7,19.3,121.7,19.6z"/>
		<path class="st0" d="M119.7,2.5c-3.7-1.8-7.9-2.5-12-2.5c-5,0-9.9,1-14.4,3.1c-4.3,2.1-8.1,5.1-11.6,8.3c-0.3,0.3-0.5,0.5-0.8,0.8
			c-0.9-0.9-1.9-1.9-2.8-2.8c-2.8-2.7-5.9-5.1-9.5-6.7c-4.4-2-9.1-2.8-13.9-2.7c-5,0.1-9.8,1.2-14.1,3.8c-4.1,2.4-7.6,6.3-9.3,10.8
			c-1.1,2.9-0.8,6,0.5,8.8c1.4,3,4,5.2,6.9,6.6c4.2,2,8.9,2.7,13.5,2.5c4.7-0.2,9.4-1.4,13.6-3.6c4.2-2.3,7.8-5.3,11.2-8.6
			c0.1-0.1,0.2-0.2,0.3-0.2c1,1,2,2.1,3.1,3.1c2.8,2.7,5.9,5.1,9.5,6.7c4.4,2,9.1,2.8,13.9,2.7c5-0.1,9.8-1.2,14.1-3.8
			c4.1-2.4,7.6-6.3,9.3-10.8c1.1-2.9,0.8-6-0.5-8.8C125.2,6.1,122.6,3.9,119.7,2.5z M37.2,10.7L37.2,10.7 M73.6,19.5
			c-0.1,0.1-0.2,0.2-0.3,0.3c-0.4,0.3-0.8,0.6-1.1,1c-0.4,0.3-0.7,0.6-1.1,0.9c0,0,0,0-0.1,0c-0.2,0.1-0.3,0.2-0.5,0.3
			c-0.4,0.3-0.8,0.5-1.2,0.8c-0.2,0.1-0.4,0.2-0.6,0.4c-0.1,0-0.1,0.1-0.2,0.1c-0.8,0.5-1.7,0.9-2.6,1.3c-0.2,0.1-0.4,0.2-0.6,0.2
			c0,0-0.1,0-0.1,0c-0.4,0.2-0.8,0.3-1.3,0.4c-0.9,0.3-1.8,0.5-2.7,0.7c-0.9,0.2-1.8,0.3-2.7,0.4c-0.1,0-0.5,0-0.5,0
			c-0.2,0-0.5,0-0.8,0c-0.6,0-1.1,0-1.7,0c-3.7,0-7.5-0.5-10.9-2c-3.1-1.4-5.8-3.6-7.3-6.7c-0.5-1.2-0.8-2.5-0.8-3.8
			c0-0.3,0-0.6,0-0.9c0,0,0-0.1,0-0.1c0-0.2,0.1-0.4,0.1-0.6c0.1-0.3,0.1-0.6,0.2-1c0-0.1,0.1-0.3,0.1-0.4c0,0,0,0,0-0.1
			c0.1-0.3,0.2-0.5,0.4-0.8c0.1-0.1,0.2-0.2,0.2-0.4c0,0,0.1-0.1,0.1-0.1c0,0,0.1-0.1,0.1-0.1c0.1-0.1,0.2-0.1,0.2-0.2c0,0,0,0,0,0
			C38.4,9,38.6,9,38.7,8.9c0.2-0.1,0.3-0.2,0.5-0.3c0.4-0.2,0.8-0.4,1.2-0.6c0.3-0.1,0.6-0.2,0.8-0.3c0.1,0,0.2-0.1,0.3-0.1
			c0.2-0.1,0.5-0.2,0.7-0.2c0.9-0.3,1.9-0.5,2.8-0.7c0.5-0.1,1-0.2,1.5-0.2c0.2,0,0.5-0.1,0.7-0.1c0.1,0,0.1,0,0.2,0
			c0,0,0.2,0,0.3,0c1.2-0.1,2.3-0.1,3.5-0.1c4,0.1,7.9,0.8,11.5,2.4c4.9,2.2,8.6,5.8,12.3,9.5C74.7,18.5,74.1,19,73.6,19.5z
			 M121.7,19.6c0,0,0,0.1,0,0.1c0,0.2-0.1,0.4-0.1,0.6c-0.1,0.3-0.1,0.6-0.2,1c0,0.1-0.1,0.3-0.1,0.4c0,0,0,0,0,0.1
			c-0.1,0.3-0.2,0.5-0.4,0.8c-0.1,0.1-0.2,0.2-0.2,0.4c0,0-0.1,0.1-0.1,0.2c0,0-0.1,0.1-0.1,0.1c-0.1,0.1-0.2,0.1-0.2,0.2
			c0,0,0,0,0,0c-0.1,0.1-0.2,0.2-0.3,0.2c-0.2,0.1-0.3,0.2-0.5,0.3c-0.4,0.2-0.8,0.4-1.2,0.6c-0.3,0.1-0.6,0.2-0.8,0.3
			c-0.1,0-0.2,0.1-0.3,0.1c-0.2,0.1-0.5,0.2-0.7,0.2c-0.9,0.3-1.9,0.5-2.8,0.7c-0.5,0.1-1,0.2-1.5,0.2c-0.2,0-0.5,0.1-0.7,0.1
			c-0.1,0-0.1,0-0.2,0c0,0-0.2,0-0.3,0c-1.2,0.1-2.3,0.1-3.5,0.1c-4-0.1-7.9-0.8-11.5-2.4c-5-2.3-8.8-6-12.6-9.8
			c0,0,0.1-0.1,0.1-0.1c0.3-0.3,0.6-0.6,1-0.9c0.1-0.1,0.3-0.3,0.4-0.4c0.6-0.5,1.2-1.1,1.9-1.6c0.1-0.1,0.3-0.2,0.4-0.3
			c0.3-0.2,0.7-0.5,1-0.7c0.4-0.2,0.7-0.5,1.1-0.7c0.1-0.1,0.2-0.2,0.4-0.2c0,0,0.1,0,0.1-0.1c0.8-0.4,1.6-0.8,2.4-1.2
			C91.9,8,92.1,8,92.3,7.9c0.1,0,0.2-0.1,0.2-0.1c0.4-0.1,0.8-0.3,1.1-0.4c0.9-0.3,1.9-0.5,2.9-0.7c1-0.2,2-0.3,3-0.4
			c0.1,0,0.5,0,0.6,0c0.3,0,0.6,0,0.9-0.1c0.6,0,1.2,0,1.8,0c3.7,0,7.5,0.5,10.9,2c3.1,1.4,5.8,3.6,7.3,6.7c0.5,1.2,0.8,2.5,0.8,3.8
			C121.7,19,121.7,19.3,121.7,19.6z"/>
		<path class="st0" d="M157.8,12.1c-0.1-0.2-0.3-0.5-0.5-0.8c-1.3-2-2.9-3.9-4.7-5.7c-2-1.9-4.1-3.3-6.3-4.2c-1.9-0.8-4-1.2-6.2-1.3
			h-10.7l0,0.4c0.2,3,0.3,5.8,0.4,8.4c0.1,3,0.2,6,0.2,8.8c0,1.8,0,3.8-0.1,6.1c0,2-0.1,4.8-0.2,8.4l0,0.3h4h7c0,0,0.7,0,1,0l0.1,0
			c1.1-0.1,2-0.2,2.9-0.5c1.4-0.4,3.3-1.1,4.5-1.9c2.6-1.6,4.3-3.1,6.8-6c0.8-1,1.5-2.1,2-3c1-1.8,1.5-3.4,1.5-4.6
			C159.5,15.4,159,14,157.8,12.1z M149.8,20.8c-1.3,1.7-2.8,3-4.5,4.1c-0.8,0.5-1.5,0.8-2.2,1c-0.7,0.2-1.5,0.3-2.3,0.3l-0.6,0
			l-0.1,0c-0.2,0-0.4,0-0.6,0l-0.6,0l-1-0.1l0-0.6c-0.1-2.1-0.1-3.7-0.2-4.9c0-1.2,0-2.2,0-3.1c0-1.3,0-2.7,0.1-4.1
			c0-1.5,0.1-3.4,0.2-5.5l0-0.7l0.7,0c0.1,0,0.3,0,0.5,0l0.9,0c1.5,0,2.9,0.3,4.1,0.8c1.3,0.5,2.5,1.4,3.7,2.5
			c1.1,1.1,2,2.2,2.8,3.4c0.9,1.4,1.3,2.2,1.3,2.9C151.8,17.7,151.2,19,149.8,20.8z"/>
		<path class="st0" d="M11.9,10.5c1.2-1.1,2.4-2,3.7-2.5c1.2-0.5,2.5-0.8,3.9-0.8l0.1,0l0.9,0l0.1,0l0.1,0l5.8,0L26.7,7
			c0.5-1.6,0.9-2.6,1.2-3.7c0.3-0.9,0.6-1.8,0.9-2.8L29,0h-9.8C17,0.1,15,0.5,13.1,1.3c-2.2,0.9-4.3,2.3-6.3,4.2
			C5,7.3,3.5,9.2,2.2,11.3C2,11.5,1.8,11.8,1.7,12C0.5,14,0,15.3,0,16.4c0,1.2,0.5,2.8,1.5,4.6c0.7,1.2,1.2,2.1,1.9,2.9
			c2.1,2.7,4.2,4.6,7.1,6.3c1.3,0.8,2.7,1.3,4,1.6c1.1,0.3,2.7,0.5,3.2,0.5l0,0l0,0c0.2,0,0.8,0,1,0l0.1,0l0.1,0l0.1,0h1.5v0h7.7
			l0.3,0l0-1.5c0-1.5-0.1-2.9-0.1-4.1c0-1.1-0.1-2.2-0.1-3c0-2.3-0.1-6.1-0.1-6.1l0-0.3l-7.5-2.1l0,0.4c0,0.6,0,1.2,0,1.8
			c0,0.9,0,1.9,0,3.1c0,1.2-0.1,2.7-0.2,4.8v0.5l0,0.2h0v0.1l-0.4,0c-0.1,0-0.2,0-0.4,0l-0.1,0l0,0l-0.6,0c-0.8,0-1.6-0.1-2.3-0.3
			c-0.7-0.2-1.5-0.6-2.2-1c-1.6-1-3.1-2.4-4.5-4.1c-1.4-1.8-2.1-3-2.1-3.9c0-0.6,0.4-1.5,1.3-2.9C9.9,12.7,10.9,11.6,11.9,10.5z"/>
	</g>
</g>
</svg>
