<?xml version="1.0" encoding="utf-8"?>
<!-- Generator: Adobe Illustrator 22.1.0, SVG Export Plug-In . SVG Version: 6.00 Build 0)  -->
<svg version="1.1" id="Layer_1" xmlns="http://www.w3.org/2000/svg" xmlns:xlink="http://www.w3.org/1999/xlink" x="0px" y="0px"
	 viewBox="0 0 50.3 50" style="enable-background:new 0 0 50.3 50;" xml:space="preserve">
<style type="text/css">
	.st0{fill:#99B6DF;}
	.st1{fill:#FFFFFF;}
</style>
<g>
	<path class="st0" d="M25.2,50c-13.8,0-25-11.2-25-25s11.2-25,25-25s25,11.2,25,25S38.9,50,25.2,50z M25.2,1.6
		C12.3,1.6,1.8,12.1,1.8,25s10.3,23.4,23.3,23.4S48.5,37.9,48.5,25S38,1.6,25.2,1.6z"/>
	<g>
		<g>
			<path class="st1" d="M39.7,15.9c-1.1,0.5-2.2,0.8-3.5,0.9c1.2-0.7,2.2-1.9,2.6-3.3c-1.2,0.7-2.4,1.2-3.8,1.5
				c-1.1-1.2-2.7-1.9-4.4-1.9c-3.3,0-6,2.7-6,6c0,0.5,0,0.9,0.1,1.4c-5-0.2-9.4-2.6-12.4-6.3c-0.5,0.9-0.8,1.9-0.8,3
				c0,2.1,1.1,3.9,2.7,5c-1,0-1.9-0.3-2.7-0.7c0,0,0,0,0,0.1c0,2.9,2.1,5.3,4.8,5.9c-0.5,0.1-1,0.2-1.6,0.2c-0.4,0-0.8,0-1.1-0.1
				c0.8,2.4,3,4.1,5.6,4.2c-2,1.6-4.6,2.6-7.4,2.6c-0.5,0-1,0-1.4-0.1c2.7,1.7,5.8,2.7,9.2,2.7c11,0,17.1-9.1,17.1-17.1
				c0-0.3,0-0.5,0-0.8C38,18.2,39,17.1,39.7,15.9z"/>
		</g>
	</g>
</g>
</svg>
