<?xml version="1.0" encoding="utf-8"?>
<!-- Generator: Adobe Illustrator 22.1.0, SVG Export Plug-In . SVG Version: 6.00 Build 0)  -->
<svg version="1.1" id="Layer_1" xmlns="http://www.w3.org/2000/svg" xmlns:xlink="http://www.w3.org/1999/xlink" x="0px" y="0px"
	 viewBox="0 0 50.3 50" style="enable-background:new 0 0 50.3 50;" xml:space="preserve">
<style type="text/css">
	.st0{fill:#F89731;}
</style>
<path class="st0" d="M25.2,0c-13.8,0-25,11.2-25,25s11.2,25,25,25s25-11.2,25-25S39,0,25.2,0z M36.7,19c0,0.3,0,0.5,0,0.8
	c0,7.9-6,17.1-17.1,17.1c-3.4,0-6.5-1-9.2-2.7c0.5,0.1,0.9,0.1,1.4,0.1c2.8,0,5.4-1,7.4-2.6c-2.6-0.1-4.8-1.8-5.6-4.2
	c0.4,0.1,0.8,0.1,1.1,0.1c0.6,0,1.1-0.1,1.6-0.2c-2.7-0.6-4.8-3-4.8-5.9c0,0,0,0,0-0.1c0.8,0.4,1.7,0.7,2.7,0.7
	c-1.6-1.1-2.7-2.9-2.7-5c0-1.1,0.3-2.1,0.8-3c3,3.6,7.4,6,12.4,6.3c-0.1-0.4-0.1-0.9-0.1-1.4c0-3.3,2.7-6,6-6c1.7,0,3.3,0.7,4.4,1.9
	c1.4-0.3,2.6-0.8,3.8-1.5c-0.4,1.4-1.4,2.6-2.6,3.3c1.2-0.2,2.4-0.5,3.5-0.9C39,17.1,38,18.2,36.7,19z"/>
</svg>
