<?xml version="1.0" encoding="utf-8"?>
<!-- Generator: Adobe Illustrator 22.1.0, SVG Export Plug-In . SVG Version: 6.00 Build 0)  -->
<svg version="1.1" id="Layer_1" xmlns="http://www.w3.org/2000/svg" xmlns:xlink="http://www.w3.org/1999/xlink" x="0px" y="0px"
	 viewBox="0 0 50.3 50" style="enable-background:new 0 0 50.3 50;" xml:space="preserve">
<style type="text/css">
	.st0{fill:#99B6DF;}
	.st1{fill:#FFFFFF;}
</style>
<g>
	<path class="st0" d="M25.2,50c-13.8,0-25-11.2-25-25s11.2-25,25-25s25,11.2,25,25S38.9,50,25.2,50z M25.2,1.6
		C12.3,1.6,1.8,12.1,1.8,25s10.3,23.4,23.3,23.4S48.5,37.9,48.5,25S38,1.6,25.2,1.6z"/>
</g>
<g>
	<g>
		<path class="st1" d="M38.6,32.8c0-0.1-0.1-0.1-0.1-0.2c-0.5-0.9-1.5-2-2.9-3.4l0,0l0,0l0,0l0,0c-0.6-0.6-1.1-1-1.2-1.2
			c-0.3-0.4-0.4-0.8-0.2-1.2c0.1-0.3,0.6-1,1.4-2c0.4-0.5,0.7-1,1-1.3c1.8-2.3,2.5-3.8,2.3-4.5l-0.1-0.2c-0.1-0.1-0.2-0.2-0.5-0.3
			c-0.3-0.1-0.6-0.1-1,0h-4.4c-0.1,0-0.2,0-0.3,0s-0.2,0-0.2,0h-0.1h-0.1c-0.1,0-0.1,0.1-0.2,0.2c-0.1,0.1-0.1,0.2-0.2,0.3
			c-0.5,1.2-1,2.4-1.6,3.4c-0.4,0.6-0.7,1.2-1,1.6c-0.3,0.5-0.6,0.8-0.8,1s-0.4,0.4-0.6,0.5s-0.3,0.2-0.4,0.2c-0.1,0-0.2,0-0.3-0.1
			s-0.3-0.2-0.3-0.4c-0.1-0.2-0.1-0.4-0.2-0.6c0-0.2,0-0.4-0.1-0.6c0-0.2,0-0.4,0-0.7c0-0.3,0-0.5,0-0.6c0-0.4,0-0.8,0-1.3
			s0-0.8,0-1.1c0-0.3,0-0.5,0-0.8s0-0.5-0.1-0.7c0-0.2-0.1-0.3-0.2-0.5c-0.1-0.2-0.2-0.3-0.3-0.4s-0.3-0.2-0.5-0.2
			c-0.5-0.1-1.2-0.2-2.1-0.2c-1.9,0-3.1,0.1-3.6,0.4c-0.2,0.1-0.4,0.3-0.6,0.5s-0.2,0.3-0.1,0.4c0.6,0.1,1,0.3,1.3,0.7l0.1,0.2
			c0.1,0.1,0.1,0.4,0.2,0.7c0.1,0.3,0.1,0.7,0.1,1.1c0.1,0.7,0.1,1.4,0,1.9c-0.1,0.5-0.1,0.9-0.1,1.2c0,0.3-0.1,0.5-0.2,0.7
			c-0.1,0.2-0.2,0.3-0.2,0.3L20,25.6c-0.1,0.1-0.3,0.1-0.4,0.1c-0.1,0-0.3-0.1-0.5-0.2s-0.4-0.3-0.6-0.6c-0.2-0.2-0.5-0.6-0.7-1
			c-0.3-0.4-0.6-1-0.9-1.6l-0.2-0.4c-0.2-0.3-0.4-0.7-0.6-1.2c0-0.6-0.2-1.1-0.4-1.6c-0.1-0.2-0.2-0.4-0.4-0.5h-0.1
			c-0.1,0-0.1-0.1-0.2-0.1c-0.1,0-0.2-0.1-0.3-0.1h-4.2c-0.4,0-0.7,0.1-0.9,0.3l-0.1,0.1c0,0.1,0,0.1,0,0.2s0,0.2,0.1,0.4
			c0.6,1.4,1.3,2.8,2,4.1c0.7,1.3,1.3,2.4,1.9,3.2c0.5,0.8,1.1,1.6,1.6,2.3c0.5,0.7,0.9,1.2,1.1,1.4c0.2,0.2,0.3,0.4,0.4,0.5
			l0.4,0.4c0.2,0.2,0.6,0.5,1.1,0.9c0.5,0.3,1,0.7,1.6,1c0.6,0.3,1.2,0.6,2,0.8c0.8,0.2,1.5,0.3,2.2,0.3h1.7c0.4,0,0.6-0.1,0.8-0.3
			l0.1-0.1c0-0.1,0.1-0.2,0.1-0.3s0.1-0.3,0.1-0.4c0-0.4,0-0.8,0.1-1.2c0.1-0.3,0.2-0.6,0.3-0.8c0.1-0.2,0.2-0.3,0.3-0.4
			c0.1-0.1,0.2-0.2,0.3-0.2c0.1,0,0.1,0,0.1-0.1c0.2-0.1,0.5,0,0.9,0.2c0.3,0.2,0.6,0.5,0.9,0.9c0.3,0.3,0.6,0.7,1,1.2
			c0.4,0.4,0.8,0.8,1.1,1l0.3,0.2c0.2,0.1,0.5,0.2,0.8,0.3s0.6,0.1,0.9,0.1l3.9-0.1c0.4,0,0.7-0.1,0.9-0.2c0.2-0.1,0.3-0.3,0.4-0.4
			c0-0.2,0-0.3,0-0.5C38.7,32.9,38.7,32.8,38.6,32.8z"/>
	</g>
</g>
</svg>
